<svg width="23" height="28" viewBox="0 0 23 28" fill="none" xmlns="http://www.w3.org/2000/svg">
<path d="M11.5917 8.0275C10.4967 8.0275 8.80172 6.7825 7.01672 6.8275C4.66172 6.8575 2.50172 8.1925 1.28672 10.3075C-1.15828 14.5525 0.656723 20.8225 3.04172 24.2725C4.21172 25.9525 5.59172 27.8425 7.42172 27.7825C9.17672 27.7075 9.83672 26.6425 11.9667 26.6425C14.0817 26.6425 14.6817 27.7825 16.5417 27.7375C18.4317 27.7075 19.6317 26.0275 20.7867 24.3325C22.1217 22.3825 22.6767 20.4925 22.7067 20.3875C22.6617 20.3725 19.0317 18.9775 18.9867 14.7775C18.9567 11.2675 21.8517 9.5875 21.9867 9.5125C20.3367 7.0975 17.8017 6.8275 16.9167 6.7675C14.6067 6.5875 12.6717 8.0275 11.5917 8.0275ZM15.4917 4.4875C16.4667 3.3175 17.1117 1.6825 16.9317 0.0625C15.5367 0.1225 13.8567 0.9925 12.8517 2.1625C11.9517 3.1975 11.1717 4.8625 11.3817 6.4525C12.9267 6.5725 14.5167 5.6575 15.4917 4.4875Z" fill="#3F3F3F"/>
</svg>
