<svg width="44" height="44" viewBox="0 0 44 44" fill="none" xmlns="http://www.w3.org/2000/svg">
<circle cx="22" cy="22" r="22" fill="#E1EB58"/>
<path d="M19.5502 25.15L28.0252 16.675C28.2252 16.475 28.4585 16.375 28.7252 16.375C28.9918 16.375 29.2252 16.475 29.4252 16.675C29.6252 16.875 29.7252 17.1127 29.7252 17.388C29.7252 17.6633 29.6252 17.9007 29.4252 18.1L20.2502 27.3C20.0502 27.5 19.8168 27.6 19.5502 27.6C19.2835 27.6 19.0502 27.5 18.8502 27.3L14.5502 23C14.3502 22.8 14.2542 22.5627 14.2622 22.288C14.2702 22.0133 14.3745 21.7757 14.5752 21.575C14.7758 21.3743 15.0135 21.2743 15.2882 21.275C15.5628 21.2757 15.8002 21.3757 16.0002 21.575L19.5502 25.15Z" fill="#3F3F3F"/>
</svg>
