<svg width="605" height="77" viewBox="0 0 605 77" fill="none" xmlns="http://www.w3.org/2000/svg">
<circle cx="22" cy="22" r="22" fill="#E1EB58"/>
<path d="M19.5502 25.15L28.0252 16.675C28.2252 16.475 28.4585 16.375 28.7252 16.375C28.9918 16.375 29.2252 16.475 29.4252 16.675C29.6252 16.875 29.7252 17.1127 29.7252 17.388C29.7252 17.6633 29.6252 17.9007 29.4252 18.1L20.2502 27.3C20.0502 27.5 19.8168 27.6 19.5502 27.6C19.2835 27.6 19.0502 27.5 18.8502 27.3L14.5502 23C14.3502 22.8 14.2542 22.5627 14.2622 22.288C14.2702 22.0133 14.3745 21.7757 14.5752 21.575C14.7758 21.3743 15.0135 21.2743 15.2882 21.275C15.5628 21.2757 15.8002 21.3757 16.0002 21.575L19.5502 25.15Z" fill="#3F3F3F"/>
<circle cx="280" cy="22" r="22" fill="#E1EB58"/>
<path d="M277.55 25.15L286.025 16.675C286.225 16.475 286.459 16.375 286.725 16.375C286.992 16.375 287.225 16.475 287.425 16.675C287.625 16.875 287.725 17.1127 287.725 17.388C287.725 17.6633 287.625 17.9007 287.425 18.1L278.25 27.3C278.05 27.5 277.817 27.6 277.55 27.6C277.284 27.6 277.05 27.5 276.85 27.3L272.55 23C272.35 22.8 272.254 22.5627 272.262 22.288C272.27 22.0133 272.375 21.7757 272.575 21.575C272.776 21.3743 273.014 21.2743 273.288 21.275C273.563 21.2757 273.8 21.3757 274 21.575L277.55 25.15Z" fill="#3F3F3F"/>
<circle cx="538" cy="22" r="22" fill="#E1EB58"/>
<line x1="44" y1="21" x2="258" y2="21" stroke="#B6B6B6" stroke-width="2"/>
<line x1="302" y1="21" x2="516" y2="21" stroke="#B6B6B6" stroke-width="2"/>
<path d="M536.18 23.38H535.64V22.68H536.18C537.127 22.68 537.793 22.4 538.18 21.84C538.58 21.28 538.78 20.56 538.78 19.68C538.78 17.8267 538.173 16.9 536.96 16.9C536.213 16.9 535.687 17.2267 535.38 17.88C535.087 18.5333 535.007 19.46 535.14 20.66L532.74 20.34C532.62 19.62 532.687 18.9467 532.94 18.32C533.207 17.6933 533.673 17.1867 534.34 16.8C535.02 16.4 535.9 16.2 536.98 16.2C538.033 16.2 538.88 16.3667 539.52 16.7C540.16 17.02 540.627 17.4467 540.92 17.98C541.227 18.5 541.38 19.0667 541.38 19.68C541.38 20.6133 541.06 21.3667 540.42 21.94C539.78 22.5 538.867 22.86 537.68 23.02C538.92 23.18 539.867 23.5533 540.52 24.14C541.187 24.7267 541.52 25.5467 541.52 26.6C541.52 27.6533 541.12 28.52 540.32 29.2C539.52 29.8667 538.327 30.2 536.74 30.2C535.687 30.2 534.787 29.96 534.04 29.48C533.307 28.9867 532.84 28.1733 532.64 27.04L534.06 26.66C534.193 27.6733 534.473 28.4 534.9 28.84C535.34 29.28 535.893 29.5 536.56 29.5C537.387 29.5 537.987 29.26 538.36 28.78C538.733 28.2867 538.92 27.56 538.92 26.6C538.92 25.6533 538.713 24.88 538.3 24.28C537.887 23.68 537.18 23.38 536.18 23.38Z" fill="#3F3F3F"/>
<path d="M7.04 72.2C5.81333 72.2 4.77333 71.94 3.92 71.42C3.06667 70.8867 2.42 70.14 1.98 69.18C1.54 68.22 1.32 67.1 1.32 65.82V64.56C1.32 63.28 1.51333 62.1667 1.9 61.22C2.3 60.26 2.89333 59.52 3.68 59C4.46667 58.4667 5.45333 58.2 6.64 58.2C7.65333 58.2 8.5 58.4 9.18 58.8C9.86 59.1867 10.36 59.7067 10.68 60.36C11.0133 61 11.1533 61.7 11.1 62.46L8.76 63.04C8.89333 61.7067 8.75333 60.6867 8.34 59.98C7.94 59.26 7.34 58.9 6.54 58.9C5.68667 58.9 5.02667 59.26 4.56 59.98C4.10667 60.7 3.88 61.8933 3.88 63.56V66.82C3.88 68.4733 4.14 69.6667 4.66 70.4C5.18 71.1333 5.97333 71.5 7.04 71.5C7.48 71.5 7.88667 71.42 8.26 71.26C8.64667 71.1 8.96667 70.8267 9.22 70.44C9.48667 70.04 9.65333 69.48 9.72 68.76L11.16 69.14C10.9733 69.8867 10.6733 70.4867 10.26 70.94C9.84667 71.3933 9.36 71.72 8.8 71.92C8.25333 72.1067 7.66667 72.2 7.04 72.2ZM22.5936 71.5C22.3803 71.7 22.1203 71.8667 21.8136 72C21.5203 72.1333 21.1603 72.2 20.7336 72.2C20.1869 72.2 19.7269 72.08 19.3536 71.84C18.9936 71.6 18.7536 71.26 18.6336 70.82C18.1936 71.3 17.7069 71.6533 17.1736 71.88C16.6536 72.0933 16.1203 72.2 15.5736 72.2C14.6536 72.2 13.9669 71.9467 13.5136 71.44C13.0603 70.92 12.8336 70.2733 12.8336 69.5C12.8336 68.7133 13.1203 68.08 13.6936 67.6C14.2669 67.1067 15.2803 66.86 16.7336 66.86H18.5536V65.24C18.5536 64.1333 18.4069 63.38 18.1136 62.98C17.8336 62.5667 17.4403 62.36 16.9336 62.36C16.6003 62.36 16.2936 62.4467 16.0136 62.62C15.7336 62.78 15.5336 63.0867 15.4136 63.54C15.3069 63.98 15.3269 64.62 15.4736 65.46L13.2736 65.14C13.1669 64.5267 13.2336 63.96 13.4736 63.44C13.7269 62.9067 14.1469 62.48 14.7336 62.16C15.3203 61.8267 16.0669 61.66 16.9736 61.66C18.0003 61.66 18.7936 61.8267 19.3536 62.16C19.9136 62.4933 20.3003 62.9333 20.5136 63.48C20.7403 64.0267 20.8536 64.6133 20.8536 65.24V69.86C20.8536 70.54 20.9136 70.9667 21.0336 71.14C21.1536 71.3133 21.2869 71.4 21.4336 71.4C21.6736 71.4 21.9403 71.26 22.2336 70.98L22.5936 71.5ZM16.4536 71.14C16.8003 71.14 17.1403 71.0533 17.4736 70.88C17.8203 70.6933 18.1803 70.3533 18.5536 69.86V67.56H17.0536C16.4003 67.56 15.9269 67.7133 15.6336 68.02C15.3403 68.3267 15.1936 68.8067 15.1936 69.46C15.1936 69.9933 15.3003 70.4067 15.5136 70.7C15.7269 70.9933 16.0403 71.14 16.4536 71.14ZM23.1553 62.42V61.86H26.8753V63.5C27.6886 62.2733 28.6553 61.66 29.7753 61.66C30.1886 61.66 30.5886 61.7933 30.9753 62.06C31.362 62.3133 31.682 62.7933 31.9353 63.5L30.1553 64.46C29.9686 63.9133 29.7486 63.5467 29.4953 63.36C29.2553 63.16 28.9953 63.06 28.7153 63.06C28.422 63.06 28.1353 63.1533 27.8553 63.34C27.5753 63.5267 27.2886 63.8733 26.9953 64.38V70.32C26.9953 70.7733 27.0153 71.0467 27.0553 71.14C27.0953 71.22 27.222 71.2733 27.4353 71.3L28.9353 71.44V72H23.1553V71.44L24.2553 71.3C24.4686 71.2733 24.5953 71.22 24.6353 71.14C24.6753 71.0467 24.6953 70.7733 24.6953 70.32V63.54C24.6953 63.0867 24.6753 62.82 24.6353 62.74C24.5953 62.6467 24.4686 62.5867 24.2553 62.56L23.1553 62.42ZM39.5136 69.92C39.3403 70.7333 39.0069 71.32 38.5136 71.68C38.0336 72.0267 37.4469 72.2 36.7536 72.2C36.0469 72.2 35.4669 72.0467 35.0136 71.74C34.5603 71.42 34.2269 71 34.0136 70.48C33.8003 69.96 33.6936 69.4067 33.6936 68.82V63.54C33.6936 63.0867 33.6736 62.82 33.6336 62.74C33.5936 62.6467 33.4669 62.5867 33.2536 62.56L32.1536 62.42V61.86H33.6936V59.54L35.9936 59.08V61.86H39.1936V62.56H35.9936V69.22C35.9936 70.0733 36.1003 70.6667 36.3136 71C36.5269 71.32 36.8003 71.48 37.1336 71.48C37.4803 71.48 37.7469 71.3467 37.9336 71.08C38.1336 70.8133 38.2603 70.3267 38.3136 69.62L39.5136 69.92Z" fill="#3F3F3F"/>
<path d="M238.86 58.96V58.4H244.88C246.347 58.4 247.44 58.74 248.16 59.42C248.893 60.0867 249.26 60.98 249.26 62.1V62.56C249.26 63.68 248.893 64.58 248.16 65.26C247.44 65.94 246.347 66.28 244.88 66.28H242.8V70.32C242.8 70.7733 242.82 71.0467 242.86 71.14C242.9 71.22 243.027 71.2733 243.24 71.3L244.74 71.44V72H238.86V71.44L239.96 71.3C240.173 71.2733 240.3 71.22 240.34 71.14C240.38 71.0467 240.4 70.7733 240.4 70.32V60.08C240.4 59.6267 240.38 59.36 240.34 59.28C240.3 59.1867 240.173 59.1267 239.96 59.1L238.86 58.96ZM244.88 59.1H242.8V65.58H244.88C245.467 65.58 245.913 65.3467 246.22 64.88C246.54 64.4133 246.7 63.7733 246.7 62.96V61.7C246.7 60.8867 246.54 60.2533 246.22 59.8C245.913 59.3333 245.467 59.1 244.88 59.1ZM260.613 71.5C260.4 71.7 260.14 71.8667 259.833 72C259.54 72.1333 259.18 72.2 258.753 72.2C258.206 72.2 257.746 72.08 257.373 71.84C257.013 71.6 256.773 71.26 256.653 70.82C256.213 71.3 255.726 71.6533 255.193 71.88C254.673 72.0933 254.14 72.2 253.593 72.2C252.673 72.2 251.986 71.9467 251.533 71.44C251.08 70.92 250.853 70.2733 250.853 69.5C250.853 68.7133 251.14 68.08 251.713 67.6C252.286 67.1067 253.3 66.86 254.753 66.86H256.573V65.24C256.573 64.1333 256.426 63.38 256.133 62.98C255.853 62.5667 255.46 62.36 254.953 62.36C254.62 62.36 254.313 62.4467 254.033 62.62C253.753 62.78 253.553 63.0867 253.433 63.54C253.326 63.98 253.346 64.62 253.493 65.46L251.293 65.14C251.186 64.5267 251.253 63.96 251.493 63.44C251.746 62.9067 252.166 62.48 252.753 62.16C253.34 61.8267 254.086 61.66 254.993 61.66C256.02 61.66 256.813 61.8267 257.373 62.16C257.933 62.4933 258.32 62.9333 258.533 63.48C258.76 64.0267 258.873 64.6133 258.873 65.24V69.86C258.873 70.54 258.933 70.9667 259.053 71.14C259.173 71.3133 259.306 71.4 259.453 71.4C259.693 71.4 259.96 71.26 260.253 70.98L260.613 71.5ZM254.473 71.14C254.82 71.14 255.16 71.0533 255.493 70.88C255.84 70.6933 256.2 70.3533 256.573 69.86V67.56H255.073C254.42 67.56 253.946 67.7133 253.653 68.02C253.36 68.3267 253.213 68.8067 253.213 69.46C253.213 69.9933 253.32 70.4067 253.533 70.7C253.746 70.9933 254.06 71.14 254.473 71.14ZM266.072 73C265.765 73.84 265.425 74.5133 265.052 75.02C264.692 75.5267 264.245 75.8933 263.712 76.12C263.178 76.3467 262.512 76.46 261.712 76.46V74.26C262.525 74.26 263.178 74.2 263.672 74.08C264.178 73.9733 264.565 73.7933 264.832 73.54C265.112 73.3 265.318 72.9867 265.452 72.6L265.652 72H264.612L261.772 63.54C261.678 63.2333 261.598 63.02 261.532 62.9C261.478 62.7667 261.412 62.68 261.332 62.64C261.265 62.6 261.158 62.5733 261.012 62.56L259.912 62.42V61.86H265.312V62.42L264.212 62.56C264.052 62.5733 263.952 62.6267 263.912 62.72C263.885 62.8 263.945 63.0733 264.092 63.54L266.272 70.14L268.532 63.46C268.678 63.0333 268.738 62.7867 268.712 62.72C268.698 62.64 268.592 62.5867 268.392 62.56L267.292 62.42V61.86H271.112V62.42L270.012 62.56C269.812 62.5867 269.678 62.64 269.612 62.72C269.545 62.8 269.438 63.0467 269.292 63.46L266.072 73ZM283.048 71.44V72H277.668V71.44L278.768 71.3C278.981 71.2733 279.108 71.22 279.148 71.14C279.188 71.0467 279.208 70.7733 279.208 70.32V65.28C279.208 64.36 279.081 63.6933 278.828 63.28C278.574 62.8533 278.194 62.64 277.688 62.64C277.474 62.64 277.221 62.7 276.928 62.82C276.634 62.9267 276.341 63.1267 276.048 63.42C275.768 63.7133 275.521 64.1467 275.308 64.72V70.32C275.308 70.7733 275.328 71.0467 275.368 71.14C275.408 71.22 275.534 71.2733 275.748 71.3L276.848 71.44V72H271.468V71.44L272.568 71.3C272.781 71.2733 272.908 71.22 272.948 71.14C272.988 71.0467 273.008 70.7733 273.008 70.32V63.54C273.008 63.0867 272.988 62.82 272.948 62.74C272.908 62.6467 272.781 62.5867 272.568 62.56L271.468 62.42V61.86H275.188V63.62C275.561 62.94 276.041 62.4467 276.628 62.14C277.214 61.82 277.808 61.66 278.408 61.66C279.128 61.66 279.734 61.8467 280.228 62.22C280.734 62.58 281.094 63.1 281.308 63.78C281.668 63.0333 282.154 62.4933 282.768 62.16C283.381 61.8267 283.994 61.66 284.608 61.66C285.554 61.66 286.308 61.9733 286.868 62.6C287.428 63.2267 287.708 64.1133 287.708 65.26V70.32C287.708 70.7733 287.728 71.0467 287.768 71.14C287.808 71.22 287.934 71.2733 288.148 71.3L289.248 71.44V72H283.868V71.44L284.968 71.3C285.181 71.2733 285.308 71.22 285.348 71.14C285.388 71.0467 285.408 70.7733 285.408 70.32V65.28C285.408 64.36 285.281 63.6933 285.028 63.28C284.774 62.8533 284.394 62.64 283.888 62.64C283.674 62.64 283.421 62.7 283.128 62.82C282.834 62.9267 282.541 63.1333 282.248 63.44C281.954 63.7467 281.701 64.1933 281.488 64.78C281.501 64.8467 281.508 64.9267 281.508 65.02C281.508 65.1 281.508 65.18 281.508 65.26V70.32C281.508 70.7733 281.528 71.0467 281.568 71.14C281.608 71.22 281.734 71.2733 281.948 71.3L283.048 71.44ZM298.945 69.62C298.705 70.5533 298.258 71.22 297.605 71.62C296.952 72.0067 296.192 72.2 295.325 72.2C293.725 72.2 292.525 71.74 291.725 70.82C290.925 69.8867 290.525 68.6533 290.525 67.12V66.72C290.525 65.1867 290.898 63.96 291.645 63.04C292.405 62.12 293.498 61.66 294.925 61.66C295.725 61.66 296.432 61.82 297.045 62.14C297.672 62.4467 298.158 62.8933 298.505 63.48C298.865 64.0667 299.045 64.78 299.045 65.62C299.045 65.82 299.032 66.0333 299.005 66.26C298.992 66.4867 298.958 66.7133 298.905 66.94H292.985V67.52C292.985 68.9333 293.185 69.9533 293.585 70.58C293.985 71.1933 294.632 71.5 295.525 71.5C296.098 71.5 296.585 71.3333 296.985 71C297.385 70.6533 297.612 70.0733 297.665 69.26L298.945 69.62ZM294.925 62.36C294.272 62.36 293.785 62.66 293.465 63.26C293.145 63.86 292.985 64.8533 292.985 66.24H296.605C296.658 65.9733 296.692 65.7267 296.705 65.5C296.732 65.26 296.745 65.04 296.745 64.84C296.745 63.9867 296.578 63.36 296.245 62.96C295.912 62.56 295.472 62.36 294.925 62.36ZM312.291 71.44V72H306.911V71.44L308.011 71.3C308.224 71.2733 308.351 71.22 308.391 71.14C308.431 71.0467 308.451 70.7733 308.451 70.32V65.28C308.451 64.36 308.311 63.6933 308.031 63.28C307.764 62.8533 307.364 62.64 306.831 62.64C306.604 62.64 306.337 62.7 306.031 62.82C305.737 62.9267 305.437 63.1267 305.131 63.42C304.837 63.7133 304.577 64.1467 304.351 64.72V70.32C304.351 70.7733 304.371 71.0467 304.411 71.14C304.451 71.22 304.577 71.2733 304.791 71.3L305.891 71.44V72H300.511V71.44L301.611 71.3C301.824 71.2733 301.951 71.22 301.991 71.14C302.031 71.0467 302.051 70.7733 302.051 70.32V63.54C302.051 63.0867 302.031 62.82 301.991 62.74C301.951 62.6467 301.824 62.5867 301.611 62.56L300.511 62.42V61.86H304.231V63.62C304.617 62.94 305.111 62.4467 305.711 62.14C306.324 61.82 306.937 61.66 307.551 61.66C308.537 61.66 309.317 61.9733 309.891 62.6C310.464 63.2267 310.751 64.1133 310.751 65.26V70.32C310.751 70.7733 310.771 71.0467 310.811 71.14C310.851 71.22 310.977 71.2733 311.191 71.3L312.291 71.44ZM320.092 69.92C319.918 70.7333 319.585 71.32 319.092 71.68C318.612 72.0267 318.025 72.2 317.332 72.2C316.625 72.2 316.045 72.0467 315.592 71.74C315.138 71.42 314.805 71 314.592 70.48C314.378 69.96 314.272 69.4067 314.272 68.82V63.54C314.272 63.0867 314.252 62.82 314.212 62.74C314.172 62.6467 314.045 62.5867 313.832 62.56L312.732 62.42V61.86H314.272V59.54L316.572 59.08V61.86H319.772V62.56H316.572V69.22C316.572 70.0733 316.678 70.6667 316.892 71C317.105 71.32 317.378 71.48 317.712 71.48C318.058 71.48 318.325 71.3467 318.512 71.08C318.712 70.8133 318.838 70.3267 318.892 69.62L320.092 69.92Z" fill="#3F3F3F"/>
<path d="M487.04 72.2C485.813 72.2 484.773 71.94 483.92 71.42C483.067 70.8867 482.42 70.14 481.98 69.18C481.54 68.22 481.32 67.1 481.32 65.82V64.56C481.32 63.28 481.513 62.1667 481.9 61.22C482.3 60.26 482.893 59.52 483.68 59C484.467 58.4667 485.453 58.2 486.64 58.2C487.653 58.2 488.5 58.4 489.18 58.8C489.86 59.1867 490.36 59.7067 490.68 60.36C491.013 61 491.153 61.7 491.1 62.46L488.76 63.04C488.893 61.7067 488.753 60.6867 488.34 59.98C487.94 59.26 487.34 58.9 486.54 58.9C485.687 58.9 485.027 59.26 484.56 59.98C484.107 60.7 483.88 61.8933 483.88 63.56V66.82C483.88 68.4733 484.14 69.6667 484.66 70.4C485.18 71.1333 485.973 71.5 487.04 71.5C487.48 71.5 487.887 71.42 488.26 71.26C488.647 71.1 488.967 70.8267 489.22 70.44C489.487 70.04 489.653 69.48 489.72 68.76L491.16 69.14C490.973 69.8867 490.673 70.4867 490.26 70.94C489.847 71.3933 489.36 71.72 488.8 71.92C488.253 72.1067 487.667 72.2 487.04 72.2ZM502.134 66.72V67.12C502.134 68.6533 501.734 69.8867 500.934 70.82C500.147 71.74 499.02 72.2 497.554 72.2C496.087 72.2 494.954 71.74 494.154 70.82C493.367 69.8867 492.974 68.6533 492.974 67.12V66.72C492.974 65.1867 493.367 63.96 494.154 63.04C494.954 62.12 496.087 61.66 497.554 61.66C499.02 61.66 500.147 62.12 500.934 63.04C501.734 63.96 502.134 65.1867 502.134 66.72ZM499.674 66.32C499.674 64.8933 499.494 63.88 499.134 63.28C498.774 62.6667 498.247 62.36 497.554 62.36C496.874 62.36 496.347 62.6667 495.974 63.28C495.614 63.88 495.434 64.8933 495.434 66.32V67.52C495.434 68.9333 495.614 69.9533 495.974 70.58C496.347 71.1933 496.874 71.5 497.554 71.5C498.247 71.5 498.774 71.1933 499.134 70.58C499.494 69.9533 499.674 68.9333 499.674 67.52V66.32ZM515.404 71.44V72H510.024V71.44L511.124 71.3C511.337 71.2733 511.464 71.22 511.504 71.14C511.544 71.0467 511.564 70.7733 511.564 70.32V65.28C511.564 64.36 511.424 63.6933 511.144 63.28C510.877 62.8533 510.477 62.64 509.944 62.64C509.717 62.64 509.451 62.7 509.144 62.82C508.851 62.9267 508.551 63.1267 508.244 63.42C507.951 63.7133 507.691 64.1467 507.464 64.72V70.32C507.464 70.7733 507.484 71.0467 507.524 71.14C507.564 71.22 507.691 71.2733 507.904 71.3L509.004 71.44V72H503.624V71.44L504.724 71.3C504.937 71.2733 505.064 71.22 505.104 71.14C505.144 71.0467 505.164 70.7733 505.164 70.32V63.54C505.164 63.0867 505.144 62.82 505.104 62.74C505.064 62.6467 504.937 62.5867 504.724 62.56L503.624 62.42V61.86H507.344V63.62C507.731 62.94 508.224 62.4467 508.824 62.14C509.437 61.82 510.051 61.66 510.664 61.66C511.651 61.66 512.431 61.9733 513.004 62.6C513.577 63.2267 513.864 64.1133 513.864 65.26V70.32C513.864 70.7733 513.884 71.0467 513.924 71.14C513.964 71.22 514.091 71.2733 514.304 71.3L515.404 71.44ZM527.925 71.44V72H522.545V71.44L523.645 71.3C523.858 71.2733 523.985 71.22 524.025 71.14C524.065 71.0467 524.085 70.7733 524.085 70.32V62.56H519.925V70.32C519.925 70.7733 519.945 71.0467 519.985 71.14C520.025 71.22 520.152 71.2733 520.365 71.3L521.465 71.44V72H516.085V71.44L517.185 71.3C517.398 71.2733 517.525 71.22 517.565 71.14C517.605 71.0467 517.625 70.7733 517.625 70.32V63.54C517.625 63.0867 517.605 62.82 517.565 62.74C517.525 62.6467 517.398 62.5867 517.185 62.56L516.085 62.42V61.86H517.625V61.18C517.625 60.4733 517.765 59.8 518.045 59.16C518.325 58.52 518.785 58 519.425 57.6C520.078 57.2 520.958 57 522.065 57C522.998 57 523.785 57.1467 524.425 57.44C525.065 57.72 525.538 58.0933 525.845 58.56C526.152 59.0133 526.258 59.5133 526.165 60.06L523.965 60.38C524.112 59.4333 524.005 58.7533 523.645 58.34C523.298 57.9133 522.772 57.7 522.065 57.7C521.638 57.7 521.258 57.7933 520.925 57.98C520.605 58.1533 520.358 58.4667 520.185 58.92C520.012 59.36 519.925 59.98 519.925 60.78V61.86H526.385V70.32C526.385 70.7733 526.405 71.0467 526.445 71.14C526.485 71.22 526.612 71.2733 526.825 71.3L527.925 71.44ZM528.702 62.42V61.86H532.422V63.5C533.236 62.2733 534.202 61.66 535.322 61.66C535.736 61.66 536.136 61.7933 536.522 62.06C536.909 62.3133 537.229 62.7933 537.482 63.5L535.702 64.46C535.516 63.9133 535.296 63.5467 535.042 63.36C534.802 63.16 534.542 63.06 534.262 63.06C533.969 63.06 533.682 63.1533 533.402 63.34C533.122 63.5267 532.836 63.8733 532.542 64.38V70.32C532.542 70.7733 532.562 71.0467 532.602 71.14C532.642 71.22 532.769 71.2733 532.982 71.3L534.482 71.44V72H528.702V71.44L529.802 71.3C530.016 71.2733 530.142 71.22 530.182 71.14C530.222 71.0467 530.242 70.7733 530.242 70.32V63.54C530.242 63.0867 530.222 62.82 530.182 62.74C530.142 62.6467 530.016 62.5867 529.802 62.56L528.702 62.42ZM549.52 71.44V72H544.14V71.44L545.24 71.3C545.454 71.2733 545.58 71.22 545.62 71.14C545.66 71.0467 545.68 70.7733 545.68 70.32V65.28C545.68 64.36 545.554 63.6933 545.3 63.28C545.047 62.8533 544.667 62.64 544.16 62.64C543.947 62.64 543.694 62.7 543.4 62.82C543.107 62.9267 542.814 63.1267 542.52 63.42C542.24 63.7133 541.994 64.1467 541.78 64.72V70.32C541.78 70.7733 541.8 71.0467 541.84 71.14C541.88 71.22 542.007 71.2733 542.22 71.3L543.32 71.44V72H537.94V71.44L539.04 71.3C539.254 71.2733 539.38 71.22 539.42 71.14C539.46 71.0467 539.48 70.7733 539.48 70.32V63.54C539.48 63.0867 539.46 62.82 539.42 62.74C539.38 62.6467 539.254 62.5867 539.04 62.56L537.94 62.42V61.86H541.66V63.62C542.034 62.94 542.514 62.4467 543.1 62.14C543.687 61.82 544.28 61.66 544.88 61.66C545.6 61.66 546.207 61.8467 546.7 62.22C547.207 62.58 547.567 63.1 547.78 63.78C548.14 63.0333 548.627 62.4933 549.24 62.16C549.854 61.8267 550.467 61.66 551.08 61.66C552.027 61.66 552.78 61.9733 553.34 62.6C553.9 63.2267 554.18 64.1133 554.18 65.26V70.32C554.18 70.7733 554.2 71.0467 554.24 71.14C554.28 71.22 554.407 71.2733 554.62 71.3L555.72 71.44V72H550.34V71.44L551.44 71.3C551.654 71.2733 551.78 71.22 551.82 71.14C551.86 71.0467 551.88 70.7733 551.88 70.32V65.28C551.88 64.36 551.754 63.6933 551.5 63.28C551.247 62.8533 550.867 62.64 550.36 62.64C550.147 62.64 549.894 62.7 549.6 62.82C549.307 62.9267 549.014 63.1333 548.72 63.44C548.427 63.7467 548.174 64.1933 547.96 64.78C547.974 64.8467 547.98 64.9267 547.98 65.02C547.98 65.1 547.98 65.18 547.98 65.26V70.32C547.98 70.7733 548 71.0467 548.04 71.14C548.08 71.22 548.207 71.2733 548.42 71.3L549.52 71.44ZM566.598 71.5C566.384 71.7 566.124 71.8667 565.818 72C565.524 72.1333 565.164 72.2 564.738 72.2C564.191 72.2 563.731 72.08 563.358 71.84C562.998 71.6 562.758 71.26 562.638 70.82C562.198 71.3 561.711 71.6533 561.178 71.88C560.658 72.0933 560.124 72.2 559.578 72.2C558.658 72.2 557.971 71.9467 557.518 71.44C557.064 70.92 556.838 70.2733 556.838 69.5C556.838 68.7133 557.124 68.08 557.698 67.6C558.271 67.1067 559.284 66.86 560.738 66.86H562.558V65.24C562.558 64.1333 562.411 63.38 562.118 62.98C561.838 62.5667 561.444 62.36 560.938 62.36C560.604 62.36 560.298 62.4467 560.018 62.62C559.738 62.78 559.538 63.0867 559.418 63.54C559.311 63.98 559.331 64.62 559.478 65.46L557.278 65.14C557.171 64.5267 557.238 63.96 557.478 63.44C557.731 62.9067 558.151 62.48 558.738 62.16C559.324 61.8267 560.071 61.66 560.978 61.66C562.004 61.66 562.798 61.8267 563.358 62.16C563.918 62.4933 564.304 62.9333 564.518 63.48C564.744 64.0267 564.858 64.6133 564.858 65.24V69.86C564.858 70.54 564.918 70.9667 565.038 71.14C565.158 71.3133 565.291 71.4 565.438 71.4C565.678 71.4 565.944 71.26 566.238 70.98L566.598 71.5ZM560.458 71.14C560.804 71.14 561.144 71.0533 561.478 70.88C561.824 70.6933 562.184 70.3533 562.558 69.86V67.56H561.058C560.404 67.56 559.931 67.7133 559.638 68.02C559.344 68.3267 559.198 68.8067 559.198 69.46C559.198 69.9933 559.304 70.4067 559.518 70.7C559.731 70.9933 560.044 71.14 560.458 71.14ZM574.279 69.92C574.106 70.7333 573.773 71.32 573.279 71.68C572.799 72.0267 572.213 72.2 571.519 72.2C570.813 72.2 570.233 72.0467 569.779 71.74C569.326 71.42 568.993 71 568.779 70.48C568.566 69.96 568.459 69.4067 568.459 68.82V63.54C568.459 63.0867 568.439 62.82 568.399 62.74C568.359 62.6467 568.233 62.5867 568.019 62.56L566.919 62.42V61.86H568.459V59.54L570.759 59.08V61.86H573.959V62.56H570.759V69.22C570.759 70.0733 570.866 70.6667 571.079 71C571.293 71.32 571.566 71.48 571.899 71.48C572.246 71.48 572.513 71.3467 572.699 71.08C572.899 70.8133 573.026 70.3267 573.079 69.62L574.279 69.92ZM577.73 60.14C577.317 60.14 576.983 60.0133 576.73 59.76C576.477 59.4933 576.35 59.1533 576.35 58.74C576.35 58.3267 576.477 57.9933 576.73 57.74C576.983 57.4867 577.317 57.36 577.73 57.36C578.13 57.36 578.463 57.4867 578.73 57.74C578.997 57.9933 579.13 58.3267 579.13 58.74C579.13 59.1533 578.997 59.4933 578.73 59.76C578.463 60.0133 578.13 60.14 577.73 60.14ZM575.05 62.42V61.86H578.89V70.32C578.89 70.7733 578.91 71.0467 578.95 71.14C578.99 71.22 579.117 71.2733 579.33 71.3L580.43 71.44V72H575.05V71.44L576.15 71.3C576.363 71.2733 576.49 71.22 576.53 71.14C576.57 71.0467 576.59 70.7733 576.59 70.32V63.54C576.59 63.0867 576.57 62.82 576.53 62.74C576.49 62.6467 576.363 62.5867 576.15 62.56L575.05 62.42ZM590.942 66.72V67.12C590.942 68.6533 590.542 69.8867 589.742 70.82C588.956 71.74 587.829 72.2 586.362 72.2C584.896 72.2 583.762 71.74 582.962 70.82C582.176 69.8867 581.782 68.6533 581.782 67.12V66.72C581.782 65.1867 582.176 63.96 582.962 63.04C583.762 62.12 584.896 61.66 586.362 61.66C587.829 61.66 588.956 62.12 589.742 63.04C590.542 63.96 590.942 65.1867 590.942 66.72ZM588.482 66.32C588.482 64.8933 588.302 63.88 587.942 63.28C587.582 62.6667 587.056 62.36 586.362 62.36C585.682 62.36 585.156 62.6667 584.782 63.28C584.422 63.88 584.242 64.8933 584.242 66.32V67.52C584.242 68.9333 584.422 69.9533 584.782 70.58C585.156 71.1933 585.682 71.5 586.362 71.5C587.056 71.5 587.582 71.1933 587.942 70.58C588.302 69.9533 588.482 68.9333 588.482 67.52V66.32ZM604.213 71.44V72H598.833V71.44L599.933 71.3C600.146 71.2733 600.273 71.22 600.313 71.14C600.353 71.0467 600.373 70.7733 600.373 70.32V65.28C600.373 64.36 600.233 63.6933 599.953 63.28C599.686 62.8533 599.286 62.64 598.753 62.64C598.526 62.64 598.259 62.7 597.953 62.82C597.659 62.9267 597.359 63.1267 597.053 63.42C596.759 63.7133 596.499 64.1467 596.273 64.72V70.32C596.273 70.7733 596.293 71.0467 596.333 71.14C596.373 71.22 596.499 71.2733 596.713 71.3L597.813 71.44V72H592.433V71.44L593.533 71.3C593.746 71.2733 593.873 71.22 593.913 71.14C593.953 71.0467 593.973 70.7733 593.973 70.32V63.54C593.973 63.0867 593.953 62.82 593.913 62.74C593.873 62.6467 593.746 62.5867 593.533 62.56L592.433 62.42V61.86H596.153V63.62C596.539 62.94 597.033 62.4467 597.633 62.14C598.246 61.82 598.859 61.66 599.473 61.66C600.459 61.66 601.239 61.9733 601.813 62.6C602.386 63.2267 602.673 64.1133 602.673 65.26V70.32C602.673 70.7733 602.693 71.0467 602.733 71.14C602.773 71.22 602.899 71.2733 603.113 71.3L604.213 71.44Z" fill="#3F3F3F"/>
</svg>
