<svg width="203" height="203" viewBox="0 0 203 203" fill="none" xmlns="http://www.w3.org/2000/svg">
<circle cx="101.5" cy="101.5" r="101.5" fill="#E1EB58"/>
<path d="M70.3136 68C68.8696 68.0523 67.5039 68.6694 66.5103 69.7185C65.5168 70.7675 64.9747 72.1647 65.0009 73.6094C65.0271 75.054 65.6194 76.4307 66.6503 77.4431C67.6812 78.4555 69.0683 79.0227 70.5132 79.0227C71.9581 79.0227 73.3452 78.4555 74.3761 77.4431C75.4071 76.4307 75.9993 75.054 76.0254 73.6094C76.0516 72.1647 75.5096 70.7675 74.516 69.7185C73.5224 68.6694 72.1567 68.0523 70.7128 68" fill="#263238"/>
<path d="M133.301 68C131.863 68.0548 130.504 68.6715 129.515 69.7177C128.527 70.7639 127.989 72.156 128.017 73.5947C128.044 75.0335 128.635 76.4041 129.662 77.412C130.689 78.4198 132.071 78.9843 133.51 78.9843C134.949 78.9843 136.33 78.4198 137.358 77.412C138.385 76.4041 138.976 75.0335 139.003 73.5947C139.03 72.156 138.492 70.7639 137.504 69.7177C136.516 68.6715 135.157 68.0548 133.719 68" fill="#263238"/>
<path d="M135.494 134.87C135.52 134.993 135.394 135.016 135.359 134.895C134.248 131.028 132.55 127.352 130.323 123.996C127.653 120.127 124.225 116.841 120.247 114.338C115.448 111.153 109.85 109.381 104.092 109.223C98.3344 109.065 92.648 110.528 87.6813 113.445C83.5792 115.735 79.9784 118.825 77.0921 122.532C74.6776 125.768 72.7816 129.357 71.4706 133.172C71.4245 133.306 71.2922 133.276 71.3318 133.14C71.5139 132.283 71.7488 131.439 72.0352 130.611C73.0769 127.558 74.5977 124.689 76.5408 122.114C79.4065 118.233 83.0523 114.995 87.244 112.608C92.3388 109.567 98.1938 108.038 104.125 108.199C110.057 108.361 115.82 110.206 120.741 113.521C124.788 116.122 128.246 119.541 130.893 123.558C132.699 126.24 134.066 129.192 134.943 132.303C135.176 133.147 135.361 134.004 135.494 134.87Z" fill="#263238"/>
</svg>
