<svg width="17" height="17" viewBox="0 0 17 17" fill="none" xmlns="http://www.w3.org/2000/svg">
<rect width="17" height="17" rx="8.5" fill="#3F3F3F"/>
<path d="M8.70897 9.28973L5.94487 12.0538C5.84145 12.1573 5.70983 12.209 5.55 12.209C5.39017 12.209 5.25855 12.1573 5.15513 12.0538C5.05171 11.9504 5 11.8188 5 11.659C5 11.4991 5.05171 11.3675 5.15513 11.2641L7.91923 8.49999L5.15513 5.73589C5.05171 5.63247 5 5.50084 5 5.34102C5 5.18119 5.05171 5.04956 5.15513 4.94614C5.25855 4.84272 5.39017 4.79102 5.55 4.79102C5.70983 4.79102 5.84145 4.84272 5.94487 4.94614L8.70897 7.71025L11.4731 4.94614C11.5765 4.84272 11.7081 4.79102 11.8679 4.79102C12.0278 4.79102 12.1594 4.84272 12.2628 4.94614C12.3662 5.04956 12.418 5.18119 12.418 5.34102C12.418 5.50084 12.3662 5.63247 12.2628 5.73589L9.49872 8.49999L12.2628 11.2641C12.3662 11.3675 12.418 11.4991 12.418 11.659C12.418 11.8188 12.3662 11.9504 12.2628 12.0538C12.1594 12.1573 12.0278 12.209 11.8679 12.209C11.7081 12.209 11.5765 12.1573 11.4731 12.0538L8.70897 9.28973Z" fill="white"/>
</svg>
