<svg width="30" height="30" viewBox="0 0 30 30" fill="none" xmlns="http://www.w3.org/2000/svg">
<path d="M10.4508 0.986669C7.45335 2.02652 4.86834 4.00018 3.07548 6.61777C1.28262 9.23535 0.376419 12.3589 0.489976 15.5296C0.603533 18.7002 1.73087 21.7509 3.70638 24.2335C5.6819 26.7162 8.40148 28.4999 11.4657 29.3226C13.9499 29.9636 16.5526 29.9918 19.05 29.4046C21.3125 28.8964 23.4042 27.8094 25.1203 26.2499C26.9065 24.5773 28.2029 22.4495 28.8703 20.0953C29.5958 17.5351 29.7249 14.8428 29.2477 12.2249H15.2977V18.0117H23.3766C23.2151 18.9346 22.8691 19.8155 22.3593 20.6016C21.8495 21.3877 21.1863 22.0628 20.4094 22.5867C19.4229 23.2392 18.3108 23.6783 17.1446 23.8757C15.9749 24.0932 14.7752 24.0932 13.6055 23.8757C12.42 23.6306 11.2985 23.1413 10.3125 22.439C8.72851 21.3177 7.53912 19.7248 6.9141 17.8874C6.2785 16.0157 6.2785 13.9865 6.9141 12.1148C7.359 10.8028 8.09449 9.60824 9.06566 8.62026C10.177 7.46889 11.5841 6.64588 13.1324 6.24153C14.6808 5.83719 16.3106 5.86713 17.843 6.32807C19.0401 6.69555 20.1348 7.33762 21.0399 8.20307C21.9508 7.29682 22.8602 6.38823 23.768 5.47729C24.2368 4.98745 24.7477 4.52104 25.2094 4.01948C23.8279 2.73388 22.2063 1.73352 20.4375 1.07573C17.2165 -0.093824 13.6922 -0.125255 10.4508 0.986669Z" fill="white"/>
</svg>
