<svg width="60" height="37" viewBox="0 0 60 37" fill="none" xmlns="http://www.w3.org/2000/svg">
<g clip-path="url(#clip0_809_2522)">
<path d="M21.5566 3.90576H37.5346V32.6156H21.5566V3.90576Z" fill="#FF5F00"/>
<path d="M22.5723 18.2607C22.5723 12.4275 25.3113 7.25353 29.5213 3.90566C26.4274 1.47095 22.5217 0 18.2609 0C8.16645 0 0 8.16645 0 18.2607C0 28.3549 8.16645 36.5213 18.2607 36.5213C22.5215 36.5213 26.4271 35.0504 29.5213 32.6155C25.3113 29.3184 22.5723 24.0939 22.5723 18.2607Z" fill="#EB001B"/>
<path d="M59.0936 18.2607C59.0936 28.3546 50.9271 36.5213 40.8329 36.5213C36.5721 36.5213 32.6664 35.0504 29.5723 32.6155C33.8331 29.2678 36.5215 24.0939 36.5215 18.2607C36.5215 12.4275 33.7822 7.25353 29.5723 3.90566C32.6662 1.47095 36.5721 0 40.8329 0C50.9271 0 59.0936 8.21729 59.0936 18.2607Z" fill="#F79E1B"/>
</g>
<defs>
<clipPath id="clip0_809_2522">
<rect width="59.1521" height="36.5079" fill="white"/>
</clipPath>
</defs>
</svg>
