<svg width="695" height="77" viewBox="0 0 695 77" fill="none" xmlns="http://www.w3.org/2000/svg">
<circle cx="22" cy="22" r="22" fill="#E1EB58"/>
<path d="M19.5502 25.15L28.0252 16.675C28.2252 16.475 28.4585 16.375 28.7252 16.375C28.9918 16.375 29.2252 16.475 29.4252 16.675C29.6252 16.875 29.7252 17.1127 29.7252 17.388C29.7252 17.6633 29.6252 17.9007 29.4252 18.1L20.2502 27.3C20.0502 27.5 19.8168 27.6 19.5502 27.6C19.2835 27.6 19.0502 27.5 18.8502 27.3L14.5502 23C14.3502 22.8 14.2542 22.5627 14.2622 22.288C14.2702 22.0133 14.3745 21.7757 14.5752 21.575C14.7758 21.3743 15.0135 21.2743 15.2882 21.275C15.5628 21.2757 15.8002 21.3757 16.0002 21.575L19.5502 25.15Z" fill="#3F3F3F"/>
<line x1="44" y1="21" x2="196" y2="21" stroke="#B6B6B6" stroke-width="2"/>
<line x1="240" y1="21" x2="392" y2="21" stroke="#B6B6B6" stroke-width="2"/>
<line x1="436" y1="21" x2="588" y2="21" stroke="#B6B6B6" stroke-width="2"/>
<circle cx="218" cy="22" r="22" fill="#E1EB58"/>
<circle cx="414" cy="22" r="22" fill="#E1EB58"/>
<path d="M412.18 23.38H411.64V22.68H412.18C413.127 22.68 413.793 22.4 414.18 21.84C414.58 21.28 414.78 20.56 414.78 19.68C414.78 17.8267 414.173 16.9 412.96 16.9C412.213 16.9 411.687 17.2267 411.38 17.88C411.087 18.5333 411.007 19.46 411.14 20.66L408.74 20.34C408.62 19.62 408.687 18.9467 408.94 18.32C409.207 17.6933 409.673 17.1867 410.34 16.8C411.02 16.4 411.9 16.2 412.98 16.2C414.033 16.2 414.88 16.3667 415.52 16.7C416.16 17.02 416.627 17.4467 416.92 17.98C417.227 18.5 417.38 19.0667 417.38 19.68C417.38 20.6133 417.06 21.3667 416.42 21.94C415.78 22.5 414.867 22.86 413.68 23.02C414.92 23.18 415.867 23.5533 416.52 24.14C417.187 24.7267 417.52 25.5467 417.52 26.6C417.52 27.6533 417.12 28.52 416.32 29.2C415.52 29.8667 414.327 30.2 412.74 30.2C411.687 30.2 410.787 29.96 410.04 29.48C409.307 28.9867 408.84 28.1733 408.64 27.04L410.06 26.66C410.193 27.6733 410.473 28.4 410.9 28.84C411.34 29.28 411.893 29.5 412.56 29.5C413.387 29.5 413.987 29.26 414.36 28.78C414.733 28.2867 414.92 27.56 414.92 26.6C414.92 25.6533 414.713 24.88 414.3 24.28C413.887 23.68 413.18 23.38 412.18 23.38Z" fill="#3F3F3F"/>
<circle cx="610" cy="22" r="22" fill="#E1EB58"/>
<path d="M609.84 28.32V26.48H604.24V25.78C604.907 25.0733 605.467 24.38 605.92 23.7C606.387 23.02 606.78 22.32 607.1 21.6C607.433 20.8667 607.727 20.08 607.98 19.24C608.233 18.3867 608.48 17.44 608.72 16.4H611.62C611.207 17.6533 610.693 18.8133 610.08 19.88C609.48 20.9333 608.773 21.94 607.96 22.9C607.16 23.86 606.247 24.82 605.22 25.78H609.84V22.72L612.24 22.36V25.78H613.78V26.48H612.24V28.32C612.24 28.7733 612.26 29.0467 612.3 29.14C612.34 29.22 612.467 29.2733 612.68 29.3L613.78 29.44V30H607.9V29.44L609.4 29.3C609.613 29.2733 609.74 29.22 609.78 29.14C609.82 29.0467 609.84 28.7733 609.84 28.32Z" fill="#3F3F3F"/>
<path d="M7.04 72.2C5.81333 72.2 4.77333 71.94 3.92 71.42C3.06667 70.8867 2.42 70.14 1.98 69.18C1.54 68.22 1.32 67.1 1.32 65.82V64.56C1.32 63.28 1.51333 62.1667 1.9 61.22C2.3 60.26 2.89333 59.52 3.68 59C4.46667 58.4667 5.45333 58.2 6.64 58.2C7.65333 58.2 8.5 58.4 9.18 58.8C9.86 59.1867 10.36 59.7067 10.68 60.36C11.0133 61 11.1533 61.7 11.1 62.46L8.76 63.04C8.89333 61.7067 8.75333 60.6867 8.34 59.98C7.94 59.26 7.34 58.9 6.54 58.9C5.68667 58.9 5.02667 59.26 4.56 59.98C4.10667 60.7 3.88 61.8933 3.88 63.56V66.82C3.88 68.4733 4.14 69.6667 4.66 70.4C5.18 71.1333 5.97333 71.5 7.04 71.5C7.48 71.5 7.88667 71.42 8.26 71.26C8.64667 71.1 8.96667 70.8267 9.22 70.44C9.48667 70.04 9.65333 69.48 9.72 68.76L11.16 69.14C10.9733 69.8867 10.6733 70.4867 10.26 70.94C9.84667 71.3933 9.36 71.72 8.8 71.92C8.25333 72.1067 7.66667 72.2 7.04 72.2ZM22.5936 71.5C22.3803 71.7 22.1203 71.8667 21.8136 72C21.5203 72.1333 21.1603 72.2 20.7336 72.2C20.1869 72.2 19.7269 72.08 19.3536 71.84C18.9936 71.6 18.7536 71.26 18.6336 70.82C18.1936 71.3 17.7069 71.6533 17.1736 71.88C16.6536 72.0933 16.1203 72.2 15.5736 72.2C14.6536 72.2 13.9669 71.9467 13.5136 71.44C13.0603 70.92 12.8336 70.2733 12.8336 69.5C12.8336 68.7133 13.1203 68.08 13.6936 67.6C14.2669 67.1067 15.2803 66.86 16.7336 66.86H18.5536V65.24C18.5536 64.1333 18.4069 63.38 18.1136 62.98C17.8336 62.5667 17.4403 62.36 16.9336 62.36C16.6003 62.36 16.2936 62.4467 16.0136 62.62C15.7336 62.78 15.5336 63.0867 15.4136 63.54C15.3069 63.98 15.3269 64.62 15.4736 65.46L13.2736 65.14C13.1669 64.5267 13.2336 63.96 13.4736 63.44C13.7269 62.9067 14.1469 62.48 14.7336 62.16C15.3203 61.8267 16.0669 61.66 16.9736 61.66C18.0003 61.66 18.7936 61.8267 19.3536 62.16C19.9136 62.4933 20.3003 62.9333 20.5136 63.48C20.7403 64.0267 20.8536 64.6133 20.8536 65.24V69.86C20.8536 70.54 20.9136 70.9667 21.0336 71.14C21.1536 71.3133 21.2869 71.4 21.4336 71.4C21.6736 71.4 21.9403 71.26 22.2336 70.98L22.5936 71.5ZM16.4536 71.14C16.8003 71.14 17.1403 71.0533 17.4736 70.88C17.8203 70.6933 18.1803 70.3533 18.5536 69.86V67.56H17.0536C16.4003 67.56 15.9269 67.7133 15.6336 68.02C15.3403 68.3267 15.1936 68.8067 15.1936 69.46C15.1936 69.9933 15.3003 70.4067 15.5136 70.7C15.7269 70.9933 16.0403 71.14 16.4536 71.14ZM23.1553 62.42V61.86H26.8753V63.5C27.6886 62.2733 28.6553 61.66 29.7753 61.66C30.1886 61.66 30.5886 61.7933 30.9753 62.06C31.362 62.3133 31.682 62.7933 31.9353 63.5L30.1553 64.46C29.9686 63.9133 29.7486 63.5467 29.4953 63.36C29.2553 63.16 28.9953 63.06 28.7153 63.06C28.422 63.06 28.1353 63.1533 27.8553 63.34C27.5753 63.5267 27.2886 63.8733 26.9953 64.38V70.32C26.9953 70.7733 27.0153 71.0467 27.0553 71.14C27.0953 71.22 27.222 71.2733 27.4353 71.3L28.9353 71.44V72H23.1553V71.44L24.2553 71.3C24.4686 71.2733 24.5953 71.22 24.6353 71.14C24.6753 71.0467 24.6953 70.7733 24.6953 70.32V63.54C24.6953 63.0867 24.6753 62.82 24.6353 62.74C24.5953 62.6467 24.4686 62.5867 24.2553 62.56L23.1553 62.42ZM39.5136 69.92C39.3403 70.7333 39.0069 71.32 38.5136 71.68C38.0336 72.0267 37.4469 72.2 36.7536 72.2C36.0469 72.2 35.4669 72.0467 35.0136 71.74C34.5603 71.42 34.2269 71 34.0136 70.48C33.8003 69.96 33.6936 69.4067 33.6936 68.82V63.54C33.6936 63.0867 33.6736 62.82 33.6336 62.74C33.5936 62.6467 33.4669 62.5867 33.2536 62.56L32.1536 62.42V61.86H33.6936V59.54L35.9936 59.08V61.86H39.1936V62.56H35.9936V69.22C35.9936 70.0733 36.1003 70.6667 36.3136 71C36.5269 71.32 36.8003 71.48 37.1336 71.48C37.4803 71.48 37.7469 71.3467 37.9336 71.08C38.1336 70.8133 38.2603 70.3267 38.3136 69.62L39.5136 69.92Z" fill="#666666"/>
<path d="M181.04 72.2C179.813 72.2 178.773 71.94 177.92 71.42C177.067 70.8867 176.42 70.14 175.98 69.18C175.54 68.22 175.32 67.1 175.32 65.82V64.56C175.32 63.28 175.513 62.1667 175.9 61.22C176.3 60.26 176.893 59.52 177.68 59C178.467 58.4667 179.453 58.2 180.64 58.2C181.653 58.2 182.5 58.4 183.18 58.8C183.86 59.1867 184.36 59.7067 184.68 60.36C185.013 61 185.153 61.7 185.1 62.46L182.76 63.04C182.893 61.7067 182.753 60.6867 182.34 59.98C181.94 59.26 181.34 58.9 180.54 58.9C179.687 58.9 179.027 59.26 178.56 59.98C178.107 60.7 177.88 61.8933 177.88 63.56V66.82C177.88 68.4733 178.14 69.6667 178.66 70.4C179.18 71.1333 179.973 71.5 181.04 71.5C181.48 71.5 181.887 71.42 182.26 71.26C182.647 71.1 182.967 70.8267 183.22 70.44C183.487 70.04 183.653 69.48 183.72 68.76L185.16 69.14C184.973 69.8867 184.673 70.4867 184.26 70.94C183.847 71.3933 183.36 71.72 182.8 71.92C182.253 72.1067 181.667 72.2 181.04 72.2ZM198.034 71.44V72H192.654V71.44L193.754 71.3C193.967 71.2733 194.094 71.22 194.134 71.14C194.174 71.0467 194.194 70.7733 194.194 70.32V65.28C194.194 64.36 194.054 63.6933 193.774 63.28C193.507 62.8533 193.107 62.64 192.574 62.64C192.347 62.64 192.08 62.7 191.774 62.82C191.48 62.9267 191.18 63.1267 190.874 63.42C190.58 63.7133 190.32 64.1467 190.094 64.72V70.32C190.094 70.7733 190.114 71.0467 190.154 71.14C190.194 71.22 190.32 71.2733 190.534 71.3L191.634 71.44V72H186.254V71.44L187.354 71.3C187.567 71.2733 187.694 71.22 187.734 71.14C187.774 71.0467 187.794 70.7733 187.794 70.32V58.88C187.794 58.4267 187.774 58.16 187.734 58.08C187.694 57.9867 187.567 57.9267 187.354 57.9L186.254 57.76V57.2H190.094V63.42C190.48 62.8067 190.96 62.36 191.534 62.08C192.12 61.8 192.707 61.66 193.294 61.66C194.28 61.66 195.06 61.9733 195.634 62.6C196.207 63.2267 196.494 64.1133 196.494 65.26V70.32C196.494 70.7733 196.514 71.0467 196.554 71.14C196.594 71.22 196.72 71.2733 196.934 71.3L198.034 71.44ZM207.738 69.62C207.498 70.5533 207.051 71.22 206.398 71.62C205.744 72.0067 204.984 72.2 204.118 72.2C202.518 72.2 201.318 71.74 200.518 70.82C199.718 69.8867 199.318 68.6533 199.318 67.12V66.72C199.318 65.1867 199.691 63.96 200.438 63.04C201.198 62.12 202.291 61.66 203.718 61.66C204.518 61.66 205.224 61.82 205.838 62.14C206.464 62.4467 206.951 62.8933 207.298 63.48C207.658 64.0667 207.838 64.78 207.838 65.62C207.838 65.82 207.824 66.0333 207.798 66.26C207.784 66.4867 207.751 66.7133 207.698 66.94H201.778V67.52C201.778 68.9333 201.978 69.9533 202.378 70.58C202.778 71.1933 203.424 71.5 204.318 71.5C204.891 71.5 205.378 71.3333 205.778 71C206.178 70.6533 206.404 70.0733 206.458 69.26L207.738 69.62ZM203.718 62.36C203.064 62.36 202.578 62.66 202.258 63.26C201.938 63.86 201.778 64.8533 201.778 66.24H205.398C205.451 65.9733 205.484 65.7267 205.498 65.5C205.524 65.26 205.538 65.04 205.538 64.84C205.538 63.9867 205.371 63.36 205.038 62.96C204.704 62.56 204.264 62.36 203.718 62.36ZM214.264 62.36C213.624 62.36 213.144 62.6667 212.824 63.28C212.517 63.88 212.364 64.8933 212.364 66.32V67.52C212.364 68.9333 212.544 69.9533 212.904 70.58C213.264 71.1933 213.85 71.5 214.664 71.5C215.264 71.5 215.75 71.3333 216.124 71C216.51 70.6533 216.73 70.0733 216.784 69.26L218.064 69.62C217.824 70.5533 217.384 71.22 216.744 71.62C216.117 72.0067 215.377 72.2 214.524 72.2C212.99 72.2 211.837 71.74 211.064 70.82C210.29 69.8867 209.904 68.6533 209.904 67.12V66.72C209.904 65.1867 210.277 63.96 211.024 63.04C211.77 62.12 212.85 61.66 214.264 61.66C215.197 61.66 215.957 61.8467 216.544 62.22C217.144 62.58 217.564 63.06 217.804 63.66C218.057 64.2467 218.124 64.88 218.004 65.56L215.804 65.88C215.95 64.76 215.89 63.8933 215.624 63.28C215.357 62.6667 214.904 62.36 214.264 62.36ZM219.222 57.76V57.2H223.062V66.9L226.582 63.54C227.049 63.1 227.296 62.8333 227.322 62.74C227.362 62.6467 227.269 62.5867 227.042 62.56L225.942 62.42V61.86H230.042V62.42L228.942 62.56C228.822 62.5733 228.722 62.6 228.642 62.64C228.562 62.68 228.449 62.7667 228.302 62.9C228.156 63.02 227.922 63.2333 227.602 63.54L225.682 65.38L228.522 70.32C228.709 70.6267 228.849 70.8467 228.942 70.98C229.036 71.1 229.122 71.18 229.202 71.22C229.296 71.2467 229.409 71.2733 229.542 71.3L230.642 71.44V72H226.822L224.042 66.94L223.062 67.88V70.32C223.062 70.7733 223.082 71.0467 223.122 71.14C223.162 71.22 223.289 71.2733 223.502 71.3L224.602 71.44V72H219.222V71.44L220.322 71.3C220.536 71.2733 220.662 71.22 220.702 71.14C220.742 71.0467 220.762 70.7733 220.762 70.32V58.88C220.762 58.4267 220.742 58.16 220.702 58.08C220.662 57.9867 220.536 57.9267 220.322 57.9L219.222 57.76ZM240.665 66.72V67.12C240.665 68.6533 240.265 69.8867 239.465 70.82C238.678 71.74 237.552 72.2 236.085 72.2C234.618 72.2 233.485 71.74 232.685 70.82C231.898 69.8867 231.505 68.6533 231.505 67.12V66.72C231.505 65.1867 231.898 63.96 232.685 63.04C233.485 62.12 234.618 61.66 236.085 61.66C237.552 61.66 238.678 62.12 239.465 63.04C240.265 63.96 240.665 65.1867 240.665 66.72ZM238.205 66.32C238.205 64.8933 238.025 63.88 237.665 63.28C237.305 62.6667 236.778 62.36 236.085 62.36C235.405 62.36 234.878 62.6667 234.505 63.28C234.145 63.88 233.965 64.8933 233.965 66.32V67.52C233.965 68.9333 234.145 69.9533 234.505 70.58C234.878 71.1933 235.405 71.5 236.085 71.5C236.778 71.5 237.305 71.1933 237.665 70.58C238.025 69.9533 238.205 68.9333 238.205 67.52V66.32ZM253.495 71.44V72H249.775V70.24C249.402 70.92 248.922 71.42 248.335 71.74C247.749 72.0467 247.155 72.2 246.555 72.2C245.609 72.2 244.855 71.8867 244.295 71.26C243.735 70.62 243.455 69.7333 243.455 68.6V63.54C243.455 63.0867 243.435 62.82 243.395 62.74C243.355 62.6467 243.229 62.5867 243.015 62.56L241.915 62.42V61.86H245.755V68.58C245.755 69.5 245.882 70.1733 246.135 70.6C246.402 71.0133 246.782 71.22 247.275 71.22C247.489 71.22 247.735 71.1667 248.015 71.06C248.309 70.94 248.602 70.7333 248.895 70.44C249.189 70.1333 249.442 69.7 249.655 69.14V63.54C249.655 63.0867 249.635 62.8133 249.595 62.72C249.555 62.6267 249.429 62.5733 249.215 62.56L247.715 62.42V61.86H251.955V70.32C251.955 70.7733 251.975 71.0467 252.015 71.14C252.055 71.22 252.182 71.2733 252.395 71.3L253.495 71.44ZM261.404 69.92C261.231 70.7333 260.898 71.32 260.404 71.68C259.924 72.0267 259.338 72.2 258.644 72.2C257.938 72.2 257.358 72.0467 256.904 71.74C256.451 71.42 256.118 71 255.904 70.48C255.691 69.96 255.584 69.4067 255.584 68.82V63.54C255.584 63.0867 255.564 62.82 255.524 62.74C255.484 62.6467 255.358 62.5867 255.144 62.56L254.044 62.42V61.86H255.584V59.54L257.884 59.08V61.86H261.084V62.56H257.884V69.22C257.884 70.0733 257.991 70.6667 258.204 71C258.418 71.32 258.691 71.48 259.024 71.48C259.371 71.48 259.638 71.3467 259.824 71.08C260.024 70.8133 260.151 70.3267 260.204 69.62L261.404 69.92Z" fill="#666666"/>
<path d="M377.86 58.96V58.4H383.88C385.347 58.4 386.44 58.74 387.16 59.42C387.893 60.0867 388.26 60.98 388.26 62.1V62.56C388.26 63.68 387.893 64.58 387.16 65.26C386.44 65.94 385.347 66.28 383.88 66.28H381.8V70.32C381.8 70.7733 381.82 71.0467 381.86 71.14C381.9 71.22 382.027 71.2733 382.24 71.3L383.74 71.44V72H377.86V71.44L378.96 71.3C379.173 71.2733 379.3 71.22 379.34 71.14C379.38 71.0467 379.4 70.7733 379.4 70.32V60.08C379.4 59.6267 379.38 59.36 379.34 59.28C379.3 59.1867 379.173 59.1267 378.96 59.1L377.86 58.96ZM383.88 59.1H381.8V65.58H383.88C384.467 65.58 384.913 65.3467 385.22 64.88C385.54 64.4133 385.7 63.7733 385.7 62.96V61.7C385.7 60.8867 385.54 60.2533 385.22 59.8C384.913 59.3333 384.467 59.1 383.88 59.1ZM399.613 71.5C399.4 71.7 399.14 71.8667 398.833 72C398.54 72.1333 398.18 72.2 397.753 72.2C397.206 72.2 396.746 72.08 396.373 71.84C396.013 71.6 395.773 71.26 395.653 70.82C395.213 71.3 394.726 71.6533 394.193 71.88C393.673 72.0933 393.14 72.2 392.593 72.2C391.673 72.2 390.986 71.9467 390.533 71.44C390.08 70.92 389.853 70.2733 389.853 69.5C389.853 68.7133 390.14 68.08 390.713 67.6C391.286 67.1067 392.3 66.86 393.753 66.86H395.573V65.24C395.573 64.1333 395.426 63.38 395.133 62.98C394.853 62.5667 394.46 62.36 393.953 62.36C393.62 62.36 393.313 62.4467 393.033 62.62C392.753 62.78 392.553 63.0867 392.433 63.54C392.326 63.98 392.346 64.62 392.493 65.46L390.293 65.14C390.186 64.5267 390.253 63.96 390.493 63.44C390.746 62.9067 391.166 62.48 391.753 62.16C392.34 61.8267 393.086 61.66 393.993 61.66C395.02 61.66 395.813 61.8267 396.373 62.16C396.933 62.4933 397.32 62.9333 397.533 63.48C397.76 64.0267 397.873 64.6133 397.873 65.24V69.86C397.873 70.54 397.933 70.9667 398.053 71.14C398.173 71.3133 398.306 71.4 398.453 71.4C398.693 71.4 398.96 71.26 399.253 70.98L399.613 71.5ZM393.473 71.14C393.82 71.14 394.16 71.0533 394.493 70.88C394.84 70.6933 395.2 70.3533 395.573 69.86V67.56H394.073C393.42 67.56 392.946 67.7133 392.653 68.02C392.36 68.3267 392.213 68.8067 392.213 69.46C392.213 69.9933 392.32 70.4067 392.533 70.7C392.746 70.9933 393.06 71.14 393.473 71.14ZM405.072 73C404.765 73.84 404.425 74.5133 404.052 75.02C403.692 75.5267 403.245 75.8933 402.712 76.12C402.178 76.3467 401.512 76.46 400.712 76.46V74.26C401.525 74.26 402.178 74.2 402.672 74.08C403.178 73.9733 403.565 73.7933 403.832 73.54C404.112 73.3 404.318 72.9867 404.452 72.6L404.652 72H403.612L400.772 63.54C400.678 63.2333 400.598 63.02 400.532 62.9C400.478 62.7667 400.412 62.68 400.332 62.64C400.265 62.6 400.158 62.5733 400.012 62.56L398.912 62.42V61.86H404.312V62.42L403.212 62.56C403.052 62.5733 402.952 62.6267 402.912 62.72C402.885 62.8 402.945 63.0733 403.092 63.54L405.272 70.14L407.532 63.46C407.678 63.0333 407.738 62.7867 407.712 62.72C407.698 62.64 407.592 62.5867 407.392 62.56L406.292 62.42V61.86H410.112V62.42L409.012 62.56C408.812 62.5867 408.678 62.64 408.612 62.72C408.545 62.8 408.438 63.0467 408.292 63.46L405.072 73ZM422.048 71.44V72H416.668V71.44L417.768 71.3C417.981 71.2733 418.108 71.22 418.148 71.14C418.188 71.0467 418.208 70.7733 418.208 70.32V65.28C418.208 64.36 418.081 63.6933 417.828 63.28C417.574 62.8533 417.194 62.64 416.688 62.64C416.474 62.64 416.221 62.7 415.928 62.82C415.634 62.9267 415.341 63.1267 415.048 63.42C414.768 63.7133 414.521 64.1467 414.308 64.72V70.32C414.308 70.7733 414.328 71.0467 414.368 71.14C414.408 71.22 414.534 71.2733 414.748 71.3L415.848 71.44V72H410.468V71.44L411.568 71.3C411.781 71.2733 411.908 71.22 411.948 71.14C411.988 71.0467 412.008 70.7733 412.008 70.32V63.54C412.008 63.0867 411.988 62.82 411.948 62.74C411.908 62.6467 411.781 62.5867 411.568 62.56L410.468 62.42V61.86H414.188V63.62C414.561 62.94 415.041 62.4467 415.628 62.14C416.214 61.82 416.808 61.66 417.408 61.66C418.128 61.66 418.734 61.8467 419.228 62.22C419.734 62.58 420.094 63.1 420.308 63.78C420.668 63.0333 421.154 62.4933 421.768 62.16C422.381 61.8267 422.994 61.66 423.608 61.66C424.554 61.66 425.308 61.9733 425.868 62.6C426.428 63.2267 426.708 64.1133 426.708 65.26V70.32C426.708 70.7733 426.728 71.0467 426.768 71.14C426.808 71.22 426.934 71.2733 427.148 71.3L428.248 71.44V72H422.868V71.44L423.968 71.3C424.181 71.2733 424.308 71.22 424.348 71.14C424.388 71.0467 424.408 70.7733 424.408 70.32V65.28C424.408 64.36 424.281 63.6933 424.028 63.28C423.774 62.8533 423.394 62.64 422.888 62.64C422.674 62.64 422.421 62.7 422.128 62.82C421.834 62.9267 421.541 63.1333 421.248 63.44C420.954 63.7467 420.701 64.1933 420.488 64.78C420.501 64.8467 420.508 64.9267 420.508 65.02C420.508 65.1 420.508 65.18 420.508 65.26V70.32C420.508 70.7733 420.528 71.0467 420.568 71.14C420.608 71.22 420.734 71.2733 420.948 71.3L422.048 71.44ZM437.945 69.62C437.705 70.5533 437.258 71.22 436.605 71.62C435.952 72.0067 435.192 72.2 434.325 72.2C432.725 72.2 431.525 71.74 430.725 70.82C429.925 69.8867 429.525 68.6533 429.525 67.12V66.72C429.525 65.1867 429.898 63.96 430.645 63.04C431.405 62.12 432.498 61.66 433.925 61.66C434.725 61.66 435.432 61.82 436.045 62.14C436.672 62.4467 437.158 62.8933 437.505 63.48C437.865 64.0667 438.045 64.78 438.045 65.62C438.045 65.82 438.032 66.0333 438.005 66.26C437.992 66.4867 437.958 66.7133 437.905 66.94H431.985V67.52C431.985 68.9333 432.185 69.9533 432.585 70.58C432.985 71.1933 433.632 71.5 434.525 71.5C435.098 71.5 435.585 71.3333 435.985 71C436.385 70.6533 436.612 70.0733 436.665 69.26L437.945 69.62ZM433.925 62.36C433.272 62.36 432.785 62.66 432.465 63.26C432.145 63.86 431.985 64.8533 431.985 66.24H435.605C435.658 65.9733 435.692 65.7267 435.705 65.5C435.732 65.26 435.745 65.04 435.745 64.84C435.745 63.9867 435.578 63.36 435.245 62.96C434.912 62.56 434.472 62.36 433.925 62.36ZM451.291 71.44V72H445.911V71.44L447.011 71.3C447.224 71.2733 447.351 71.22 447.391 71.14C447.431 71.0467 447.451 70.7733 447.451 70.32V65.28C447.451 64.36 447.311 63.6933 447.031 63.28C446.764 62.8533 446.364 62.64 445.831 62.64C445.604 62.64 445.337 62.7 445.031 62.82C444.737 62.9267 444.437 63.1267 444.131 63.42C443.837 63.7133 443.577 64.1467 443.351 64.72V70.32C443.351 70.7733 443.371 71.0467 443.411 71.14C443.451 71.22 443.577 71.2733 443.791 71.3L444.891 71.44V72H439.511V71.44L440.611 71.3C440.824 71.2733 440.951 71.22 440.991 71.14C441.031 71.0467 441.051 70.7733 441.051 70.32V63.54C441.051 63.0867 441.031 62.82 440.991 62.74C440.951 62.6467 440.824 62.5867 440.611 62.56L439.511 62.42V61.86H443.231V63.62C443.617 62.94 444.111 62.4467 444.711 62.14C445.324 61.82 445.937 61.66 446.551 61.66C447.537 61.66 448.317 61.9733 448.891 62.6C449.464 63.2267 449.751 64.1133 449.751 65.26V70.32C449.751 70.7733 449.771 71.0467 449.811 71.14C449.851 71.22 449.977 71.2733 450.191 71.3L451.291 71.44ZM459.092 69.92C458.918 70.7333 458.585 71.32 458.092 71.68C457.612 72.0267 457.025 72.2 456.332 72.2C455.625 72.2 455.045 72.0467 454.592 71.74C454.138 71.42 453.805 71 453.592 70.48C453.378 69.96 453.272 69.4067 453.272 68.82V63.54C453.272 63.0867 453.252 62.82 453.212 62.74C453.172 62.6467 453.045 62.5867 452.832 62.56L451.732 62.42V61.86H453.272V59.54L455.572 59.08V61.86H458.772V62.56H455.572V69.22C455.572 70.0733 455.678 70.6667 455.892 71C456.105 71.32 456.378 71.48 456.712 71.48C457.058 71.48 457.325 71.3467 457.512 71.08C457.712 70.8133 457.838 70.3267 457.892 69.62L459.092 69.92Z" fill="#666666"/>
<path d="M539.5 71.5C540.3 71.5 540.96 71.3133 541.48 70.94C542.013 70.5533 542.28 69.9533 542.28 69.14C542.28 68.54 542.1 68.04 541.74 67.64C541.393 67.24 540.767 66.9067 539.86 66.64L538 66.08C537.067 65.8 536.347 65.32 535.84 64.64C535.347 63.9467 535.1 63.0867 535.1 62.06C535.1 61.38 535.253 60.7467 535.56 60.16C535.88 59.5733 536.36 59.1 537 58.74C537.653 58.38 538.473 58.2 539.46 58.2C540.54 58.2 541.413 58.4 542.08 58.8C542.747 59.1867 543.213 59.6933 543.48 60.32C543.747 60.9467 543.813 61.62 543.68 62.34L541.38 62.76C541.593 61.52 541.5 60.5667 541.1 59.9C540.713 59.2333 540.08 58.9 539.2 58.9C538.52 58.9 537.973 59.1 537.56 59.5C537.16 59.9 536.96 60.4733 536.96 61.22C536.96 61.8333 537.133 62.3733 537.48 62.84C537.84 63.3067 538.427 63.6667 539.24 63.92L541.1 64.48C542.113 64.7733 542.873 65.22 543.38 65.82C543.887 66.4067 544.14 67.2267 544.14 68.28C544.14 69.0267 543.967 69.7 543.62 70.3C543.287 70.8867 542.773 71.3533 542.08 71.7C541.4 72.0333 540.547 72.2 539.52 72.2C538.773 72.2 538.067 72.0933 537.4 71.88C536.733 71.6533 536.173 71.2867 535.72 70.78C535.28 70.2733 535 69.5867 534.88 68.72L536.22 68.24C536.287 69.0933 536.473 69.76 536.78 70.24C537.1 70.7067 537.493 71.0333 537.96 71.22C538.44 71.4067 538.953 71.5 539.5 71.5ZM557.03 71.44V72H553.31V70.24C552.937 70.92 552.457 71.42 551.87 71.74C551.284 72.0467 550.69 72.2 550.09 72.2C549.144 72.2 548.39 71.8867 547.83 71.26C547.27 70.62 546.99 69.7333 546.99 68.6V63.54C546.99 63.0867 546.97 62.82 546.93 62.74C546.89 62.6467 546.764 62.5867 546.55 62.56L545.45 62.42V61.86H549.29V68.58C549.29 69.5 549.417 70.1733 549.67 70.6C549.937 71.0133 550.317 71.22 550.81 71.22C551.024 71.22 551.27 71.1667 551.55 71.06C551.844 70.94 552.137 70.7333 552.43 70.44C552.724 70.1333 552.977 69.7 553.19 69.14V63.54C553.19 63.0867 553.17 62.8133 553.13 62.72C553.09 62.6267 552.964 62.5733 552.75 62.56L551.25 62.42V61.86H555.49V70.32C555.49 70.7733 555.51 71.0467 555.55 71.14C555.59 71.22 555.717 71.2733 555.93 71.3L557.03 71.44ZM562.779 62.36C562.139 62.36 561.659 62.6667 561.339 63.28C561.033 63.88 560.879 64.8933 560.879 66.32V67.52C560.879 68.9333 561.059 69.9533 561.419 70.58C561.779 71.1933 562.366 71.5 563.179 71.5C563.779 71.5 564.266 71.3333 564.639 71C565.026 70.6533 565.246 70.0733 565.299 69.26L566.579 69.62C566.339 70.5533 565.899 71.22 565.259 71.62C564.633 72.0067 563.893 72.2 563.039 72.2C561.506 72.2 560.353 71.74 559.579 70.82C558.806 69.8867 558.419 68.6533 558.419 67.12V66.72C558.419 65.1867 558.793 63.96 559.539 63.04C560.286 62.12 561.366 61.66 562.779 61.66C563.713 61.66 564.473 61.8467 565.059 62.22C565.659 62.58 566.079 63.06 566.319 63.66C566.573 64.2467 566.639 64.88 566.519 65.56L564.319 65.88C564.466 64.76 564.406 63.8933 564.139 63.28C563.873 62.6667 563.419 62.36 562.779 62.36ZM572.838 62.36C572.198 62.36 571.718 62.6667 571.398 63.28C571.091 63.88 570.938 64.8933 570.938 66.32V67.52C570.938 68.9333 571.118 69.9533 571.478 70.58C571.838 71.1933 572.425 71.5 573.238 71.5C573.838 71.5 574.325 71.3333 574.698 71C575.085 70.6533 575.305 70.0733 575.358 69.26L576.638 69.62C576.398 70.5533 575.958 71.22 575.318 71.62C574.691 72.0067 573.951 72.2 573.098 72.2C571.565 72.2 570.411 71.74 569.638 70.82C568.865 69.8867 568.478 68.6533 568.478 67.12V66.72C568.478 65.1867 568.851 63.96 569.598 63.04C570.345 62.12 571.425 61.66 572.838 61.66C573.771 61.66 574.531 61.8467 575.118 62.22C575.718 62.58 576.138 63.06 576.378 63.66C576.631 64.2467 576.698 64.88 576.578 65.56L574.378 65.88C574.525 64.76 574.465 63.8933 574.198 63.28C573.931 62.6667 573.478 62.36 572.838 62.36ZM586.957 69.62C586.717 70.5533 586.27 71.22 585.617 71.62C584.963 72.0067 584.203 72.2 583.337 72.2C581.737 72.2 580.537 71.74 579.737 70.82C578.937 69.8867 578.537 68.6533 578.537 67.12V66.72C578.537 65.1867 578.91 63.96 579.657 63.04C580.417 62.12 581.51 61.66 582.937 61.66C583.737 61.66 584.443 61.82 585.057 62.14C585.683 62.4467 586.17 62.8933 586.517 63.48C586.877 64.0667 587.057 64.78 587.057 65.62C587.057 65.82 587.043 66.0333 587.017 66.26C587.003 66.4867 586.97 66.7133 586.917 66.94H580.997V67.52C580.997 68.9333 581.197 69.9533 581.597 70.58C581.997 71.1933 582.643 71.5 583.537 71.5C584.11 71.5 584.597 71.3333 584.997 71C585.397 70.6533 585.623 70.0733 585.677 69.26L586.957 69.62ZM582.937 62.36C582.283 62.36 581.797 62.66 581.477 63.26C581.157 63.86 580.997 64.8533 580.997 66.24H584.617C584.67 65.9733 584.703 65.7267 584.717 65.5C584.743 65.26 584.757 65.04 584.757 64.84C584.757 63.9867 584.59 63.36 584.257 62.96C583.923 62.56 583.483 62.36 582.937 62.36ZM593.083 68.22L591.703 67.9C590.809 67.6867 590.143 67.3067 589.703 66.76C589.276 66.2 589.063 65.54 589.063 64.78C589.063 64.22 589.183 63.7067 589.423 63.24C589.676 62.76 590.069 62.38 590.603 62.1C591.136 61.8067 591.829 61.66 592.683 61.66C593.603 61.66 594.349 61.8067 594.923 62.1C595.496 62.3933 595.903 62.78 596.143 63.26C596.383 63.74 596.456 64.2533 596.363 64.8L594.163 65.2C594.349 64.2933 594.296 63.5933 594.003 63.1C593.723 62.6067 593.249 62.36 592.583 62.36C592.116 62.36 591.729 62.5 591.423 62.78C591.116 63.0467 590.963 63.4333 590.963 63.94C590.963 64.4067 591.096 64.82 591.363 65.18C591.629 65.5267 592.023 65.76 592.543 65.88L593.923 66.2C594.909 66.4267 595.623 66.7867 596.063 67.28C596.503 67.76 596.723 68.36 596.723 69.08C596.723 69.9733 596.389 70.72 595.723 71.32C595.069 71.9067 594.089 72.2 592.783 72.2C592.329 72.2 591.829 72.1333 591.283 72C590.749 71.8533 590.256 71.5933 589.803 71.22C589.363 70.8467 589.043 70.3133 588.843 69.62L590.143 69.1C590.236 69.98 590.536 70.6 591.043 70.96C591.563 71.32 592.143 71.5 592.783 71.5C593.383 71.5 593.869 71.3667 594.243 71.1C594.629 70.82 594.823 70.42 594.823 69.9C594.823 69.54 594.696 69.2133 594.443 68.92C594.203 68.6133 593.749 68.38 593.083 68.22ZM602.692 68.22L601.312 67.9C600.419 67.6867 599.752 67.3067 599.312 66.76C598.885 66.2 598.672 65.54 598.672 64.78C598.672 64.22 598.792 63.7067 599.032 63.24C599.285 62.76 599.679 62.38 600.212 62.1C600.745 61.8067 601.439 61.66 602.292 61.66C603.212 61.66 603.959 61.8067 604.532 62.1C605.105 62.3933 605.512 62.78 605.752 63.26C605.992 63.74 606.065 64.2533 605.972 64.8L603.772 65.2C603.959 64.2933 603.905 63.5933 603.612 63.1C603.332 62.6067 602.859 62.36 602.192 62.36C601.725 62.36 601.339 62.5 601.032 62.78C600.725 63.0467 600.572 63.4333 600.572 63.94C600.572 64.4067 600.705 64.82 600.972 65.18C601.239 65.5267 601.632 65.76 602.152 65.88L603.532 66.2C604.519 66.4267 605.232 66.7867 605.672 67.28C606.112 67.76 606.332 68.36 606.332 69.08C606.332 69.9733 605.999 70.72 605.332 71.32C604.679 71.9067 603.699 72.2 602.392 72.2C601.939 72.2 601.439 72.1333 600.892 72C600.359 71.8533 599.865 71.5933 599.412 71.22C598.972 70.8467 598.652 70.3133 598.452 69.62L599.752 69.1C599.845 69.98 600.145 70.6 600.652 70.96C601.172 71.32 601.752 71.5 602.392 71.5C602.992 71.5 603.479 71.3667 603.852 71.1C604.239 70.82 604.432 70.42 604.432 69.9C604.432 69.54 604.305 69.2133 604.052 68.92C603.812 68.6133 603.359 68.38 602.692 68.22ZM612.614 58.96V58.4H618.634C620.101 58.4 621.194 58.74 621.914 59.42C622.647 60.0867 623.014 60.98 623.014 62.1V62.56C623.014 63.68 622.647 64.58 621.914 65.26C621.194 65.94 620.101 66.28 618.634 66.28H616.554V70.32C616.554 70.7733 616.574 71.0467 616.614 71.14C616.654 71.22 616.781 71.2733 616.994 71.3L618.494 71.44V72H612.614V71.44L613.714 71.3C613.927 71.2733 614.054 71.22 614.094 71.14C614.134 71.0467 614.154 70.7733 614.154 70.32V60.08C614.154 59.6267 614.134 59.36 614.094 59.28C614.054 59.1867 613.927 59.1267 613.714 59.1L612.614 58.96ZM618.634 59.1H616.554V65.58H618.634C619.221 65.58 619.667 65.3467 619.974 64.88C620.294 64.4133 620.454 63.7733 620.454 62.96V61.7C620.454 60.8867 620.294 60.2533 619.974 59.8C619.667 59.3333 619.221 59.1 618.634 59.1ZM634.367 71.5C634.154 71.7 633.894 71.8667 633.587 72C633.294 72.1333 632.934 72.2 632.507 72.2C631.96 72.2 631.5 72.08 631.127 71.84C630.767 71.6 630.527 71.26 630.407 70.82C629.967 71.3 629.48 71.6533 628.947 71.88C628.427 72.0933 627.894 72.2 627.347 72.2C626.427 72.2 625.74 71.9467 625.287 71.44C624.834 70.92 624.607 70.2733 624.607 69.5C624.607 68.7133 624.894 68.08 625.467 67.6C626.04 67.1067 627.054 66.86 628.507 66.86H630.327V65.24C630.327 64.1333 630.18 63.38 629.887 62.98C629.607 62.5667 629.214 62.36 628.707 62.36C628.374 62.36 628.067 62.4467 627.787 62.62C627.507 62.78 627.307 63.0867 627.187 63.54C627.08 63.98 627.1 64.62 627.247 65.46L625.047 65.14C624.94 64.5267 625.007 63.96 625.247 63.44C625.5 62.9067 625.92 62.48 626.507 62.16C627.094 61.8267 627.84 61.66 628.747 61.66C629.774 61.66 630.567 61.8267 631.127 62.16C631.687 62.4933 632.074 62.9333 632.287 63.48C632.514 64.0267 632.627 64.6133 632.627 65.24V69.86C632.627 70.54 632.687 70.9667 632.807 71.14C632.927 71.3133 633.06 71.4 633.207 71.4C633.447 71.4 633.714 71.26 634.007 70.98L634.367 71.5ZM628.227 71.14C628.574 71.14 628.914 71.0533 629.247 70.88C629.594 70.6933 629.954 70.3533 630.327 69.86V67.56H628.827C628.174 67.56 627.7 67.7133 627.407 68.02C627.114 68.3267 626.967 68.8067 626.967 69.46C626.967 69.9933 627.074 70.4067 627.287 70.7C627.5 70.9933 627.814 71.14 628.227 71.14ZM639.826 73C639.519 73.84 639.179 74.5133 638.806 75.02C638.446 75.5267 637.999 75.8933 637.466 76.12C636.932 76.3467 636.266 76.46 635.466 76.46V74.26C636.279 74.26 636.932 74.2 637.426 74.08C637.932 73.9733 638.319 73.7933 638.586 73.54C638.866 73.3 639.072 72.9867 639.206 72.6L639.406 72H638.366L635.526 63.54C635.432 63.2333 635.352 63.02 635.286 62.9C635.232 62.7667 635.166 62.68 635.086 62.64C635.019 62.6 634.912 62.5733 634.766 62.56L633.666 62.42V61.86H639.066V62.42L637.966 62.56C637.806 62.5733 637.706 62.6267 637.666 62.72C637.639 62.8 637.699 63.0733 637.846 63.54L640.026 70.14L642.286 63.46C642.432 63.0333 642.492 62.7867 642.466 62.72C642.452 62.64 642.346 62.5867 642.146 62.56L641.046 62.42V61.86H644.866V62.42L643.766 62.56C643.566 62.5867 643.432 62.64 643.366 62.72C643.299 62.8 643.192 63.0467 643.046 63.46L639.826 73ZM656.802 71.44V72H651.422V71.44L652.522 71.3C652.735 71.2733 652.862 71.22 652.902 71.14C652.942 71.0467 652.962 70.7733 652.962 70.32V65.28C652.962 64.36 652.835 63.6933 652.582 63.28C652.328 62.8533 651.948 62.64 651.442 62.64C651.228 62.64 650.975 62.7 650.682 62.82C650.388 62.9267 650.095 63.1267 649.802 63.42C649.522 63.7133 649.275 64.1467 649.062 64.72V70.32C649.062 70.7733 649.082 71.0467 649.122 71.14C649.162 71.22 649.288 71.2733 649.502 71.3L650.602 71.44V72H645.222V71.44L646.322 71.3C646.535 71.2733 646.662 71.22 646.702 71.14C646.742 71.0467 646.762 70.7733 646.762 70.32V63.54C646.762 63.0867 646.742 62.82 646.702 62.74C646.662 62.6467 646.535 62.5867 646.322 62.56L645.222 62.42V61.86H648.942V63.62C649.315 62.94 649.795 62.4467 650.382 62.14C650.968 61.82 651.562 61.66 652.162 61.66C652.882 61.66 653.488 61.8467 653.982 62.22C654.488 62.58 654.848 63.1 655.062 63.78C655.422 63.0333 655.908 62.4933 656.522 62.16C657.135 61.8267 657.748 61.66 658.362 61.66C659.308 61.66 660.062 61.9733 660.622 62.6C661.182 63.2267 661.462 64.1133 661.462 65.26V70.32C661.462 70.7733 661.482 71.0467 661.522 71.14C661.562 71.22 661.688 71.2733 661.902 71.3L663.002 71.44V72H657.622V71.44L658.722 71.3C658.935 71.2733 659.062 71.22 659.102 71.14C659.142 71.0467 659.162 70.7733 659.162 70.32V65.28C659.162 64.36 659.035 63.6933 658.782 63.28C658.528 62.8533 658.148 62.64 657.642 62.64C657.428 62.64 657.175 62.7 656.882 62.82C656.588 62.9267 656.295 63.1333 656.002 63.44C655.708 63.7467 655.455 64.1933 655.242 64.78C655.255 64.8467 655.262 64.9267 655.262 65.02C655.262 65.1 655.262 65.18 655.262 65.26V70.32C655.262 70.7733 655.282 71.0467 655.322 71.14C655.362 71.22 655.488 71.2733 655.702 71.3L656.802 71.44ZM672.699 69.62C672.459 70.5533 672.012 71.22 671.359 71.62C670.705 72.0067 669.945 72.2 669.079 72.2C667.479 72.2 666.279 71.74 665.479 70.82C664.679 69.8867 664.279 68.6533 664.279 67.12V66.72C664.279 65.1867 664.652 63.96 665.399 63.04C666.159 62.12 667.252 61.66 668.679 61.66C669.479 61.66 670.185 61.82 670.799 62.14C671.425 62.4467 671.912 62.8933 672.259 63.48C672.619 64.0667 672.799 64.78 672.799 65.62C672.799 65.82 672.785 66.0333 672.759 66.26C672.745 66.4867 672.712 66.7133 672.659 66.94H666.739V67.52C666.739 68.9333 666.939 69.9533 667.339 70.58C667.739 71.1933 668.385 71.5 669.279 71.5C669.852 71.5 670.339 71.3333 670.739 71C671.139 70.6533 671.365 70.0733 671.419 69.26L672.699 69.62ZM668.679 62.36C668.025 62.36 667.539 62.66 667.219 63.26C666.899 63.86 666.739 64.8533 666.739 66.24H670.359C670.412 65.9733 670.445 65.7267 670.459 65.5C670.485 65.26 670.499 65.04 670.499 64.84C670.499 63.9867 670.332 63.36 669.999 62.96C669.665 62.56 669.225 62.36 668.679 62.36ZM686.045 71.44V72H680.665V71.44L681.765 71.3C681.978 71.2733 682.105 71.22 682.145 71.14C682.185 71.0467 682.205 70.7733 682.205 70.32V65.28C682.205 64.36 682.065 63.6933 681.785 63.28C681.518 62.8533 681.118 62.64 680.585 62.64C680.358 62.64 680.091 62.7 679.785 62.82C679.491 62.9267 679.191 63.1267 678.885 63.42C678.591 63.7133 678.331 64.1467 678.105 64.72V70.32C678.105 70.7733 678.125 71.0467 678.165 71.14C678.205 71.22 678.331 71.2733 678.545 71.3L679.645 71.44V72H674.265V71.44L675.365 71.3C675.578 71.2733 675.705 71.22 675.745 71.14C675.785 71.0467 675.805 70.7733 675.805 70.32V63.54C675.805 63.0867 675.785 62.82 675.745 62.74C675.705 62.6467 675.578 62.5867 675.365 62.56L674.265 62.42V61.86H677.985V63.62C678.371 62.94 678.865 62.4467 679.465 62.14C680.078 61.82 680.691 61.66 681.305 61.66C682.291 61.66 683.071 61.9733 683.645 62.6C684.218 63.2267 684.505 64.1133 684.505 65.26V70.32C684.505 70.7733 684.525 71.0467 684.565 71.14C684.605 71.22 684.731 71.2733 684.945 71.3L686.045 71.44ZM693.846 69.92C693.672 70.7333 693.339 71.32 692.846 71.68C692.366 72.0267 691.779 72.2 691.086 72.2C690.379 72.2 689.799 72.0467 689.346 71.74C688.892 71.42 688.559 71 688.346 70.48C688.132 69.96 688.026 69.4067 688.026 68.82V63.54C688.026 63.0867 688.006 62.82 687.966 62.74C687.926 62.6467 687.799 62.5867 687.586 62.56L686.486 62.42V61.86H688.026V59.54L690.326 59.08V61.86H693.526V62.56H690.326V69.22C690.326 70.0733 690.432 70.6667 690.646 71C690.859 71.32 691.132 71.48 691.466 71.48C691.812 71.48 692.079 71.3467 692.266 71.08C692.466 70.8133 692.592 70.3267 692.646 69.62L693.846 69.92Z" fill="#666666"/>
<path d="M216.55 25.15L225.025 16.675C225.225 16.475 225.459 16.375 225.725 16.375C225.992 16.375 226.225 16.475 226.425 16.675C226.625 16.875 226.725 17.1127 226.725 17.388C226.725 17.6633 226.625 17.9007 226.425 18.1L217.25 27.3C217.05 27.5 216.817 27.6 216.55 27.6C216.284 27.6 216.05 27.5 215.85 27.3L211.55 23C211.35 22.8 211.254 22.5627 211.262 22.288C211.27 22.0133 211.375 21.7757 211.575 21.575C211.776 21.3743 212.014 21.2743 212.288 21.275C212.563 21.2757 212.8 21.3757 213 21.575L216.55 25.15Z" fill="#3F3F3F"/>
</svg>
