<svg width="62" height="62" viewBox="0 0 62 62" fill="none" xmlns="http://www.w3.org/2000/svg">
<circle cx="30.998" cy="30.998" r="30.998" fill="#43433F"/>
<path d="M40.0686 33.5903C41.0998 33.5903 42.0888 34 42.818 34.7292C43.5472 35.4584 43.9569 36.4474 43.9569 37.4786V38.4053C43.9569 43.0414 38.5003 46.5512 30.996 46.5512C23.4917 46.5512 18.0352 43.2241 18.0352 38.4053V37.4786C18.0352 36.4474 18.4448 35.4584 19.174 34.7292C19.9032 34 20.8922 33.5903 21.9234 33.5903H40.0686Z" fill="url(#paint0_linear_493_4966)"/>
<path d="M40.0686 33.5903C41.0998 33.5903 42.0888 34 42.818 34.7292C43.5472 35.4584 43.9569 36.4474 43.9569 37.4786V38.4053C43.9569 43.0414 38.5003 46.5512 30.996 46.5512C23.4917 46.5512 18.0352 43.2241 18.0352 38.4053V37.4786C18.0352 36.4474 18.4448 35.4584 19.174 34.7292C19.9032 34 20.8922 33.5903 21.9234 33.5903H40.0686Z" fill="url(#paint1_linear_493_4966)"/>
<path d="M30.9953 15.4451C32.0166 15.4451 33.0278 15.6462 33.9713 16.037C34.9148 16.4278 35.7721 17.0007 36.4942 17.7228C37.2163 18.4449 37.7892 19.3022 38.18 20.2457C38.5708 21.1892 38.7719 22.2004 38.7719 23.2217C38.7719 24.2429 38.5708 25.2541 38.18 26.1976C37.7892 27.1411 37.2163 27.9984 36.4942 28.7205C35.7721 29.4427 34.9148 30.0155 33.9713 30.4063C33.0278 30.7971 32.0166 30.9982 30.9953 30.9982C28.9329 30.9982 26.9549 30.1789 25.4965 28.7205C24.0381 27.2621 23.2188 25.2841 23.2188 23.2217C23.2187 21.1592 24.0381 19.1812 25.4965 17.7228C26.9549 16.2644 28.9329 15.4451 30.9953 15.4451Z" fill="url(#paint2_linear_493_4966)"/>
<defs>
<linearGradient id="paint0_linear_493_4966" x1="24.1993" y1="35.3128" x2="28.387" y2="48.6858" gradientUnits="userSpaceOnUse">
<stop offset="0.125" stop-color="#9C6CFE"/>
<stop offset="1" stop-color="#7A41DC"/>
</linearGradient>
<linearGradient id="paint1_linear_493_4966" x1="30.996" y1="32.0467" x2="36.8595" y2="53.957" gradientUnits="userSpaceOnUse">
<stop stop-color="#A5B011"/>
<stop offset="1" stop-color="#E1EB58"/>
</linearGradient>
<linearGradient id="paint2_linear_493_4966" x1="26.9178" y1="17.5123" x2="34.8435" y2="30.17" gradientUnits="userSpaceOnUse">
<stop offset="0.125" stop-color="#868E17"/>
<stop offset="1" stop-color="#E1EB58"/>
</linearGradient>
</defs>
</svg>
