<svg width="173" height="35" viewBox="0 0 173 35" fill="none" xmlns="http://www.w3.org/2000/svg">
<path d="M45.3304 27.3436L47.1157 19.6943L41.1797 14.5516L48.9988 13.875L52.0611 6.66052L55.1234 13.8735L62.9411 14.5502L57.0051 19.6929L58.7918 27.3422L52.0611 23.2821L45.3304 27.3436Z" fill="#F8BD00"/>
<path d="M10.7757 27.3436L12.561 19.6943L6.625 14.5516L14.4441 13.875L17.5064 6.66052L20.5687 13.8735L28.3864 14.5502L22.4504 19.6929L24.2371 27.3422L17.5064 23.2821L10.7757 27.3436Z" fill="#F8BD00"/>
<path d="M151.186 24.3231L155.721 21.5876L160.256 24.359L159.069 19.176L163.064 15.7207L157.809 15.2528L155.721 10.3577L153.634 15.2168L148.379 15.6847L152.374 19.176L151.186 24.3231ZM148.991 27.3436L150.776 19.6943L144.84 14.5516L152.659 13.875L155.721 6.66052L158.784 13.8735L166.601 14.5502L160.665 19.6929L162.452 27.3422L155.721 23.2821L148.991 27.3436Z" fill="#F8BD00"/>
<path d="M116.631 24.3231L121.167 21.5876L125.702 24.359L124.514 19.176L128.509 15.7207L123.254 15.2528L121.167 10.3577L119.079 15.2168L113.824 15.6847L117.819 19.176L116.631 24.3231ZM114.436 27.3436L116.221 19.6943L110.285 14.5516L118.104 13.875L121.167 6.66052L124.229 13.8735L132.047 14.5502L126.111 19.6929L127.897 27.3422L121.167 23.2821L114.436 27.3436Z" fill="#F8BD00"/>
<path d="M82.0807 24.3231L86.6158 21.5876L91.1509 24.359L89.9632 19.176L93.9584 15.7207L88.7034 15.2528L86.6158 10.3577L84.5282 15.2168L79.2732 15.6847L83.2684 19.176L82.0807 24.3231ZM79.8851 27.3436L81.6704 19.6943L75.7344 14.5516L83.5535 13.875L86.6158 6.66052L89.6781 13.8735L97.4958 14.5502L91.5598 19.6929L93.3465 27.3422L86.6158 23.2821L79.8851 27.3436Z" fill="#F8BD00"/>
</svg>
