<svg width="173" height="35" viewBox="0 0 173 35" fill="none" xmlns="http://www.w3.org/2000/svg">
<path d="M10.7757 27.3369L12.561 19.6876L6.625 14.5449L14.4441 13.8683L17.5064 6.65381L20.5687 13.8668L28.3864 14.5435L22.4504 19.6862L24.2371 27.3354L17.5064 23.2754L10.7757 27.3369Z" fill="#F8BD00"/>
<path d="M151.186 24.3163L155.721 21.5809L160.256 24.3523L159.069 19.1693L163.064 15.714L157.809 15.2461L155.721 10.351L153.634 15.2101L148.379 15.678L152.374 19.1693L151.186 24.3163ZM148.991 27.3369L150.776 19.6876L144.84 14.5449L152.659 13.8683L155.721 6.65381L158.784 13.8668L166.601 14.5435L160.665 19.6862L162.452 27.3354L155.721 23.2754L148.991 27.3369Z" fill="#F8BD00"/>
<path d="M116.631 24.3163L121.167 21.5809L125.702 24.3523L124.514 19.1693L128.509 15.714L123.254 15.2461L121.167 10.351L119.079 15.2101L113.824 15.678L117.819 19.1693L116.631 24.3163ZM114.436 27.3369L116.221 19.6876L110.285 14.5449L118.104 13.8683L121.167 6.65381L124.229 13.8668L132.047 14.5435L126.111 19.6862L127.897 27.3354L121.167 23.2754L114.436 27.3369Z" fill="#F8BD00"/>
<path d="M82.0807 24.3163L86.6158 21.5809L91.1509 24.3523L89.9632 19.1693L93.9584 15.714L88.7034 15.2461L86.6158 10.351L84.5282 15.2101L79.2732 15.678L83.2684 19.1693L82.0807 24.3163ZM79.8851 27.3369L81.6704 19.6876L75.7344 14.5449L83.5535 13.8683L86.6158 6.65381L89.6781 13.8668L97.4958 14.5435L91.5598 19.6862L93.3465 27.3354L86.6158 23.2754L79.8851 27.3369Z" fill="#F8BD00"/>
<path d="M47.526 24.3163L52.0611 21.5809L56.5962 24.3523L55.4085 19.1693L59.4037 15.714L54.1487 15.2461L52.0611 10.351L49.9735 15.2101L44.7185 15.678L48.7138 19.1693L47.526 24.3163ZM45.3304 27.3369L47.1157 19.6876L41.1797 14.5449L48.9988 13.8683L52.0611 6.65381L55.1234 13.8668L62.9411 14.5435L57.0051 19.6862L58.7918 27.3354L52.0611 23.2754L45.3304 27.3369Z" fill="#F8BD00"/>
</svg>
