<svg width="173" height="36" viewBox="0 0 173 36" fill="none" xmlns="http://www.w3.org/2000/svg">
<path d="M79.8812 27.7902L81.6664 20.141L75.7305 14.9983L83.5496 14.3216L86.6119 7.10718L89.6742 14.3202L97.4919 14.9969L91.5559 20.1396L93.3426 27.7888L86.6119 23.7288L79.8812 27.7902Z" fill="#F8BD00"/>
<path d="M45.3304 27.7902L47.1157 20.141L41.1797 14.9983L48.9988 14.3216L52.0611 7.10718L55.1234 14.3202L62.9411 14.9969L57.0051 20.1396L58.7918 27.7888L52.0611 23.7288L45.3304 27.7902Z" fill="#F8BD00"/>
<path d="M10.7757 27.7902L12.561 20.141L6.625 14.9983L14.4441 14.3216L17.5064 7.10718L20.5687 14.3202L28.3864 14.9969L22.4504 20.1396L24.2371 27.7888L17.5064 23.7288L10.7757 27.7902Z" fill="#F8BD00"/>
<path d="M151.186 24.7697L155.721 22.0342L160.256 24.8057L159.069 19.6227L163.064 16.1674L157.809 15.6994L155.721 10.8044L153.634 15.6635L148.379 16.1314L152.374 19.6227L151.186 24.7697ZM148.991 27.7902L150.776 20.141L144.84 14.9983L152.659 14.3216L155.721 7.10718L158.784 14.3202L166.601 14.9969L160.665 20.1396L162.452 27.7888L155.721 23.7288L148.991 27.7902Z" fill="#F8BD00"/>
<path d="M116.631 24.7697L121.167 22.0342L125.702 24.8057L124.514 19.6227L128.509 16.1674L123.254 15.6994L121.167 10.8044L119.079 15.6635L113.824 16.1314L117.819 19.6227L116.631 24.7697ZM114.436 27.7902L116.221 20.141L110.285 14.9983L118.104 14.3216L121.167 7.10718L124.229 14.3202L132.047 14.9969L126.111 20.1396L127.897 27.7888L121.167 23.7288L114.436 27.7902Z" fill="#F8BD00"/>
</svg>
