<svg width="173" height="35" viewBox="0 0 173 35" fill="none" xmlns="http://www.w3.org/2000/svg">
<path d="M114.44 27.2437L116.225 19.5945L110.289 14.4518L118.108 13.7751L121.17 6.56067L124.233 13.7737L132.05 14.4504L126.115 19.593L127.901 27.2423L121.17 23.1823L114.44 27.2437Z" fill="#F8BD00"/>
<path d="M148.994 27.2437L150.78 19.5945L144.844 14.4518L152.663 13.7751L155.725 6.56067L158.787 13.7737L166.605 14.4504L160.669 19.593L162.456 27.2423L155.725 23.1823L148.994 27.2437Z" fill="#F8BD00"/>
<path d="M79.8851 27.2437L81.6704 19.5945L75.7344 14.4518L83.5535 13.7751L86.6158 6.56067L89.6781 13.7737L97.4958 14.4504L91.5598 19.593L93.3465 27.2423L86.6158 23.1823L79.8851 27.2437Z" fill="#F8BD00"/>
<path d="M45.3343 27.2437L47.1196 19.5945L41.1836 14.4518L49.0027 13.7751L52.065 6.56067L55.1273 13.7737L62.945 14.4504L57.009 19.593L58.7957 27.2423L52.065 23.1823L45.3343 27.2437Z" fill="#F8BD00"/>
<path d="M10.7796 27.2437L12.5649 19.5945L6.62891 14.4518L14.448 13.7751L17.5103 6.56067L20.5726 13.7737L28.3903 14.4504L22.4544 19.593L24.241 27.2423L17.5103 23.1823L10.7796 27.2437Z" fill="#F8BD00"/>
</svg>
