<svg width="173" height="36" viewBox="0 0 173 36" fill="none" xmlns="http://www.w3.org/2000/svg">
<path d="M114.436 27.7971L116.221 20.1478L110.285 15.0051L118.104 14.3285L121.167 7.11401L124.229 14.327L132.047 15.0037L126.111 20.1464L127.897 27.7956L121.167 23.7356L114.436 27.7971Z" fill="#F8BD00"/>
<path d="M79.8812 27.7971L81.6664 20.1478L75.7305 15.0051L83.5496 14.3285L86.6119 7.11401L89.6742 14.327L97.4919 15.0037L91.5559 20.1464L93.3426 27.7956L86.6119 23.7356L79.8812 27.7971Z" fill="#F8BD00"/>
<path d="M45.3304 27.7971L47.1157 20.1478L41.1797 15.0051L48.9988 14.3285L52.0611 7.11401L55.1234 14.327L62.9411 15.0037L57.0051 20.1464L58.7918 27.7956L52.0611 23.7356L45.3304 27.7971Z" fill="#F8BD00"/>
<path d="M10.7757 27.7971L12.561 20.1478L6.625 15.0051L14.4441 14.3285L17.5064 7.11401L20.5687 14.327L28.3864 15.0037L22.4504 20.1464L24.2371 27.7956L17.5064 23.7356L10.7757 27.7971Z" fill="#F8BD00"/>
<path d="M151.186 24.7765L155.721 22.0411L160.256 24.8125L159.069 19.6295L163.064 16.1742L157.809 15.7063L155.721 10.8112L153.634 15.6703L148.379 16.1382L152.374 19.6295L151.186 24.7765ZM148.991 27.7971L150.776 20.1478L144.84 15.0051L152.659 14.3285L155.721 7.11401L158.784 14.327L166.601 15.0037L160.665 20.1464L162.452 27.7956L155.721 23.7356L148.991 27.7971Z" fill="#F8BD00"/>
</svg>
