<svg width="44" height="44" viewBox="0 0 44 44" fill="none" xmlns="http://www.w3.org/2000/svg">
<circle cx="22" cy="22" r="22" fill="#E1EB58"/>
<path d="M20.18 23.38H19.64V22.68H20.18C21.1267 22.68 21.7933 22.4 22.18 21.84C22.58 21.28 22.78 20.56 22.78 19.68C22.78 17.8267 22.1733 16.9 20.96 16.9C20.2133 16.9 19.6867 17.2267 19.38 17.88C19.0867 18.5333 19.0067 19.46 19.14 20.66L16.74 20.34C16.62 19.62 16.6867 18.9467 16.94 18.32C17.2067 17.6933 17.6733 17.1867 18.34 16.8C19.02 16.4 19.9 16.2 20.98 16.2C22.0333 16.2 22.88 16.3667 23.52 16.7C24.16 17.02 24.6267 17.4467 24.92 17.98C25.2267 18.5 25.38 19.0667 25.38 19.68C25.38 20.6133 25.06 21.3667 24.42 21.94C23.78 22.5 22.8667 22.86 21.68 23.02C22.92 23.18 23.8667 23.5533 24.52 24.14C25.1867 24.7267 25.52 25.5467 25.52 26.6C25.52 27.6533 25.12 28.52 24.32 29.2C23.52 29.8667 22.3267 30.2 20.74 30.2C19.6867 30.2 18.7867 29.96 18.04 29.48C17.3067 28.9867 16.84 28.1733 16.64 27.04L18.06 26.66C18.1933 27.6733 18.4733 28.4 18.9 28.84C19.34 29.28 19.8933 29.5 20.56 29.5C21.3867 29.5 21.9867 29.26 22.36 28.78C22.7333 28.2867 22.92 27.56 22.92 26.6C22.92 25.6533 22.7133 24.88 22.3 24.28C21.8867 23.68 21.18 23.38 20.18 23.38Z" fill="#3F3F3F"/>
</svg>
