<svg width="44" height="44" viewBox="0 0 44 44" fill="none" xmlns="http://www.w3.org/2000/svg">
<circle cx="22" cy="22" r="22" fill="#E1EB58"/>
<path d="M24.8 25.58H25.36V30H16.98V28.6C16.98 27.7733 17.1067 27.08 17.36 26.52C17.6267 25.9467 17.98 25.4533 18.42 25.04C18.86 24.6267 19.3333 24.26 19.84 23.94C20.3333 23.6067 20.82 23.2667 21.3 22.92C21.7933 22.56 22.2 22.1267 22.52 21.62C22.84 21.1 23 20.44 23 19.64C23 17.8133 22.3933 16.9 21.18 16.9C20.4333 16.9 19.9067 17.2267 19.6 17.88C19.3067 18.5333 19.2267 19.46 19.36 20.66L16.96 20.34C16.84 19.62 16.9067 18.9467 17.16 18.32C17.4267 17.6933 17.8933 17.1867 18.56 16.8C19.24 16.4 20.12 16.2 21.2 16.2C22.2533 16.2 23.1 16.3733 23.74 16.72C24.38 17.0533 24.8467 17.5 25.14 18.06C25.4467 18.6067 25.6 19.2 25.6 19.84C25.6 20.6267 25.44 21.2733 25.12 21.78C24.8 22.2867 24.38 22.7067 23.86 23.04C23.34 23.36 22.78 23.64 22.18 23.88C21.58 24.1067 21 24.3533 20.44 24.62C19.76 24.9267 19.18 25.34 18.7 25.86C18.22 26.3667 17.9267 27.0533 17.82 27.92H23.28C23.6 27.92 23.8267 27.9133 23.96 27.9C24.0933 27.8733 24.18 27.8267 24.22 27.76C24.2733 27.68 24.32 27.56 24.36 27.4L24.8 25.58Z" fill="#3F3F3F"/>
</svg>
