<svg width="42" height="34" viewBox="0 0 42 34" fill="none" xmlns="http://www.w3.org/2000/svg">
<path d="M34.2779 15.1993C34.2779 15.1993 34.8318 17.9123 34.9565 18.4806H32.5218L33.6886 15.3083C33.6742 15.3306 33.9288 14.6441 34.0745 14.2215L34.2779 15.1993ZM41.9994 4.16645V29.8337C41.9983 30.7618 41.6292 31.6515 40.973 32.3077C40.3167 32.964 39.427 33.3331 38.4989 33.3341H3.49848C2.57043 33.3331 1.68069 32.964 1.02445 32.3077C0.368219 31.6515 -0.000910952 30.7618 -0.00195312 29.8337V4.16645C-0.000910952 3.2384 0.368219 2.34865 1.02445 1.69242C1.68069 1.03619 2.57043 0.667058 3.49848 0.666016H38.4989C39.427 0.667058 40.3167 1.03619 40.973 1.69242C41.6292 2.34865 41.9983 3.2384 41.9994 4.16645ZM11.1189 22.4837L15.727 11.1673H12.6282L9.76305 18.8966L9.44936 17.3295L8.42823 12.1228C8.26023 11.401 7.74311 11.1962 7.1013 11.1673H2.38417L2.33298 11.3931C3.41317 11.6584 4.44937 12.0784 5.40948 12.64L8.02005 22.4837H11.1189ZM18.0029 22.4981L19.8404 11.1673H16.9096L15.08 22.4981H18.0029ZM28.2037 18.7943C28.2181 17.5041 27.4306 16.5197 25.7467 15.7099C24.719 15.1915 24.0916 14.8423 24.0916 14.3095C24.106 13.8278 24.6245 13.3316 25.7755 13.3316C26.5254 13.3094 27.2705 13.4565 27.9556 13.7621L28.2181 13.8855L28.6197 11.4351C27.7815 11.1157 26.8918 10.9524 25.9947 10.9534C23.0994 10.9534 21.065 12.4995 21.0505 14.7006C21.0282 16.3268 22.5087 17.2311 23.6178 17.7771C24.7479 18.331 25.135 18.6958 25.135 19.1841C25.1206 19.9427 24.2163 20.2918 23.3776 20.2918C22.2108 20.2918 21.5834 20.1094 20.6279 19.6868L20.242 19.5043L19.8339 22.0493C20.519 22.363 21.7882 22.6399 23.1007 22.6543C26.1772 22.6609 28.1827 21.1371 28.205 18.7903L28.2037 18.7943ZM38.4989 22.4981L36.1364 11.1673H33.8684C33.1689 11.1673 32.636 11.3721 32.3367 12.1084L27.9832 22.4995H31.0597C31.0597 22.4995 31.5624 21.099 31.6726 20.8011H35.4355C35.5235 21.2027 35.786 22.4995 35.786 22.4995L38.4989 22.4981Z" fill="#AAA51E"/>
</svg>
