<svg width="69" height="45" viewBox="0 0 69 45" fill="none" xmlns="http://www.w3.org/2000/svg">
<rect x="0.410156" width="68.443" height="45" rx="5" fill="black"/>
<path d="M35.3106 8.96512C35.754 8.78946 36.2456 8.78946 36.6876 8.96512C38.1128 9.53321 38.3919 11.7191 40.0734 11.841C41.2578 11.926 42.4209 10.94 43.6094 11.236C44.0883 11.355 44.5019 11.661 44.7626 12.086C45.5574 13.3922 44.5317 15.3118 45.8279 16.3955C46.7289 17.1464 48.2179 17.05 49.0013 17.9723C49.3314 18.3605 49.4929 18.8676 49.4504 19.379C49.3257 20.8991 47.3877 21.8497 47.8141 23.4874C48.1074 24.6207 49.3512 25.4183 49.4504 26.621C49.4717 26.8735 49.443 27.1278 49.3659 27.3691C49.2889 27.6105 49.165 27.8344 49.0013 28.0278C48.0167 29.1866 45.8889 28.8055 45.2754 30.3752C44.8434 31.4774 45.3973 32.8714 44.7626 33.9126C44.5054 34.3373 44.091 34.6432 43.6094 34.764C42.1333 35.1324 40.6344 33.5457 39.2149 34.441C38.2006 35.0785 37.8379 36.5774 36.6876 37.0335C36.2459 37.2116 35.7523 37.2116 35.3106 37.0335C34.1603 36.5774 33.7976 35.0785 32.7833 34.441C31.3808 33.557 29.8394 35.1253 28.3888 34.764C27.9075 34.6436 27.4931 34.3382 27.2356 33.914C26.4409 32.6079 27.4665 30.6883 26.1703 29.6045C25.2693 28.8537 23.7804 28.95 22.9969 28.0278C22.8333 27.8344 22.7093 27.6105 22.6323 27.3691C22.5552 27.1278 22.5265 26.8735 22.5479 26.621C22.647 25.4183 23.8894 24.6207 24.1855 23.4874C24.6063 21.8667 22.6711 20.8765 22.5479 19.379C22.5265 19.1265 22.5552 18.8723 22.6323 18.6309C22.7093 18.3895 22.8333 18.1657 22.9969 17.9723C23.9815 16.8135 26.1094 17.196 26.7228 15.6249C27.1549 14.5227 26.6009 13.1287 27.2356 12.0875C27.4949 11.661 27.9085 11.355 28.3888 11.236C29.5788 10.9385 30.7404 11.9274 31.9248 11.841C33.6064 11.7191 33.8854 9.53321 35.3106 8.96512Z" stroke="white" stroke-width="1.5" stroke-linecap="round" stroke-linejoin="round"/>
<path d="M31.75 24.8885C31.75 24.8885 32.9896 24.8885 34.2292 27.2501C34.2292 27.2501 38.1675 21.3468 41.6667 20.1667" stroke="white" stroke-width="1.5" stroke-linecap="round" stroke-linejoin="round"/>
</svg>
