<svg width="17" height="17" viewBox="0 0 17 17" fill="none" xmlns="http://www.w3.org/2000/svg">
<path d="M15.8236 8.50008H6.04253M2.59007 8.50008H1.17773M2.59007 8.50008C2.59007 8.04236 2.7719 7.60338 3.09555 7.27973C3.41921 6.95607 3.85818 6.77424 4.3159 6.77424C4.77362 6.77424 5.21259 6.95607 5.53625 7.27973C5.85991 7.60338 6.04173 8.04236 6.04173 8.50008C6.04173 8.9578 5.85991 9.39677 5.53625 9.72042C5.21259 10.0441 4.77362 10.2259 4.3159 10.2259C3.85818 10.2259 3.41921 10.0441 3.09555 9.72042C2.7719 9.39677 2.59007 8.9578 2.59007 8.50008ZM15.8236 13.7306H11.2731M11.2731 13.7306C11.2731 14.1884 11.0908 14.6279 10.7671 14.9516C10.4433 15.2754 10.0043 15.4572 9.54644 15.4572C9.08872 15.4572 8.64975 15.2746 8.32609 14.951C8.00244 14.6273 7.82061 14.1883 7.82061 13.7306M11.2731 13.7306C11.2731 13.2728 11.0908 12.8341 10.7671 12.5104C10.4433 12.1867 10.0043 12.0048 9.54644 12.0048C9.08872 12.0048 8.64975 12.1866 8.32609 12.5103C8.00244 12.8339 7.82061 13.2729 7.82061 13.7306M7.82061 13.7306H1.17773M15.8236 3.26953H13.3654M9.91298 3.26953H1.17773M9.91298 3.26953C9.91298 2.81182 10.0948 2.37284 10.4185 2.04919C10.7421 1.72553 11.1811 1.5437 11.6388 1.5437C11.8655 1.5437 12.0899 1.58834 12.2993 1.67507C12.5087 1.7618 12.6989 1.88893 12.8592 2.04919C13.0194 2.20944 13.1465 2.3997 13.2333 2.60909C13.32 2.81847 13.3646 3.04289 13.3646 3.26953C13.3646 3.49617 13.32 3.72059 13.2333 3.92998C13.1465 4.13937 13.0194 4.32962 12.8592 4.48988C12.6989 4.65014 12.5087 4.77727 12.2993 4.864C12.0899 4.95073 11.8655 4.99537 11.6388 4.99537C11.1811 4.99537 10.7421 4.81354 10.4185 4.48988C10.0948 4.16623 9.91298 3.72725 9.91298 3.26953Z" stroke="#666666" stroke-width="1.5" stroke-miterlimit="10" stroke-linecap="round"/>
</svg>
