<svg width="69" height="45" viewBox="0 0 69 45" fill="none" xmlns="http://www.w3.org/2000/svg">
<rect x="0.0527344" width="68.443" height="45" rx="5" fill="black"/>
<path d="M18.2188 17.7521V10.2896C18.2189 9.92146 18.3216 9.56069 18.5153 9.24765C18.7089 8.9346 18.9859 8.68165 19.3151 8.51711L25.2629 5.5432C25.5381 5.40569 25.8415 5.33411 26.1492 5.33411C26.4568 5.33411 26.7602 5.40569 27.0354 5.5432L32.9832 8.51711C33.3125 8.68165 33.5894 8.9346 33.7831 9.24765C33.9767 9.56069 34.0794 9.92146 34.0796 10.2896V17.7521C34.0797 18.1205 33.9773 18.4817 33.7836 18.7951C33.5899 19.1085 33.3128 19.3618 32.9832 19.5265L27.0354 22.5004C26.7602 22.6379 26.4568 22.7095 26.1492 22.7095C25.8415 22.7095 25.5381 22.6379 25.2629 22.5004L19.3151 19.5265C18.9856 19.3618 18.7084 19.1085 18.5147 18.7951C18.3211 18.4817 18.2186 18.1205 18.2188 17.7521ZM20.2807 10.6623C20.1784 10.9044 20.1766 11.1773 20.2755 11.4208C20.3744 11.6643 20.5659 11.8586 20.808 11.9609L25.1579 13.7968V18.9773C25.1579 19.2402 25.2623 19.4924 25.4482 19.6783C25.6341 19.8642 25.8863 19.9686 26.1492 19.9686C26.4121 19.9686 26.6642 19.8642 26.8501 19.6783C27.036 19.4924 27.1405 19.2402 27.1405 18.9773V13.7968L31.4903 11.9609C31.727 11.855 31.9128 11.6606 32.0079 11.4193C32.1029 11.1781 32.0997 10.9092 31.9988 10.6703C31.8979 10.4314 31.7074 10.2416 31.4681 10.1415C31.2289 10.0414 30.96 10.039 30.7191 10.1349L26.1492 12.064L21.5773 10.1349C21.3351 10.0327 21.0623 10.0308 20.8188 10.1297C20.5753 10.2286 20.383 10.4202 20.2807 10.6623ZM19.2913 30.3773V21.7331L21.2739 22.7244V30.3773C21.2739 31.2001 21.9401 31.8642 22.7609 31.8642H23.2744C23.5019 30.7438 24.1098 29.7364 24.995 29.0129C25.8803 28.2893 26.9884 27.8941 28.1318 27.8941C29.2751 27.8941 30.3833 28.2893 31.2685 29.0129C32.1537 29.7364 32.7616 30.7438 32.9891 31.8642H35.17C35.3001 31.2263 35.5545 30.6202 35.9189 30.0807C36.2832 29.5411 36.7503 29.0786 37.2934 28.7196C37.8366 28.3605 38.4451 28.112 39.0843 27.9883C39.7235 27.8645 40.3808 27.8679 41.0187 27.9982V11.5426C41.0187 11.1482 40.862 10.77 40.5832 10.4911C40.3043 10.2123 39.9261 10.0556 39.5317 10.0556H36.0542C36.0124 9.34665 35.781 8.66194 35.3841 8.07301H39.5317C41.4469 8.07301 43.0013 9.62737 43.0013 11.5426V14.0208H44.748C45.3005 14.0208 45.8422 14.1748 46.3121 14.4655C46.7821 14.7561 47.1618 15.172 47.4086 15.6664L50.6165 22.0801C50.8227 22.4945 50.9317 22.9485 50.9317 23.4104V30.8729C50.9317 31.6617 50.6184 32.4181 50.0607 32.9758C49.5029 33.5335 48.7465 33.8468 47.9578 33.8468H44.8848C44.6572 34.9673 44.0494 35.9746 43.1641 36.6982C42.2789 37.4218 41.1707 37.817 40.0274 37.817C38.8841 37.817 37.7759 37.4218 36.8906 36.6982C36.0054 35.9746 35.3975 34.9673 35.17 33.8468H32.9891C32.7616 34.9673 32.1537 35.9746 31.2685 36.6982C30.3833 37.4218 29.2751 37.817 28.1318 37.817C26.9884 37.817 25.8803 37.4218 24.995 36.6982C24.1098 35.9746 23.5019 34.9673 23.2744 33.8468H22.7609C21.8407 33.8468 20.9582 33.4813 20.3075 32.8306C19.6569 32.18 19.2913 31.2975 19.2913 30.3773ZM44.8848 31.8642H47.9578C48.2207 31.8642 48.4728 31.7598 48.6588 31.5739C48.8447 31.388 48.9491 31.1358 48.9491 30.8729V23.9338H43.0013V28.8903C43.9529 29.6041 44.6409 30.6549 44.8848 31.8642ZM48.3385 21.9512L45.6381 16.5526C45.556 16.3878 45.4296 16.2491 45.2731 16.1521C45.1165 16.0551 44.9361 16.0036 44.7519 16.0034H43.0013V21.9512H48.3385ZM25.1579 32.8555C25.1579 33.6443 25.4712 34.4007 26.0289 34.9584C26.5866 35.5161 27.343 35.8294 28.1318 35.8294C28.9205 35.8294 29.6769 35.5161 30.2346 34.9584C30.7923 34.4007 31.1057 33.6443 31.1057 32.8555C31.1057 32.0668 30.7923 31.3104 30.2346 30.7527C29.6769 30.195 28.9205 29.8816 28.1318 29.8816C27.343 29.8816 26.5866 30.195 26.0289 30.7527C25.4712 31.3104 25.1579 32.0668 25.1579 32.8555ZM40.0274 35.8294C40.8161 35.8294 41.5725 35.5161 42.1303 34.9584C42.688 34.4007 43.0013 33.6443 43.0013 32.8555C43.0013 32.0668 42.688 31.3104 42.1303 30.7527C41.5725 30.195 40.8161 29.8816 40.0274 29.8816C39.2387 29.8816 38.4822 30.195 37.9245 30.7527C37.3668 31.3104 37.0535 32.0668 37.0535 32.8555C37.0535 33.6443 37.3668 34.4007 37.9245 34.9584C38.4822 35.5161 39.2387 35.8294 40.0274 35.8294Z" fill="white"/>
</svg>
