<svg width="40" height="40" viewBox="0 0 40 40" fill="none" xmlns="http://www.w3.org/2000/svg">
<path d="M20.1673 30.9167L20.0007 31.0833L19.8173 30.9167C11.9007 23.7333 6.66732 18.9833 6.66732 14.1667C6.66732 10.8333 9.16732 8.33333 12.5007 8.33333C15.0673 8.33333 17.5673 10 18.4507 12.2667H21.5507C22.434 10 24.934 8.33333 27.5007 8.33333C30.834 8.33333 33.334 10.8333 33.334 14.1667C33.334 18.9833 28.1007 23.7333 20.1673 30.9167ZM27.5007 5C24.6007 5 21.8173 6.35 20.0007 8.46667C18.184 6.35 15.4007 5 12.5007 5C7.36732 5 3.33398 9.01667 3.33398 14.1667C3.33398 20.45 9.00065 25.6 17.584 33.3833L20.0007 35.5833L22.4173 33.3833C31.0007 25.6 36.6673 20.45 36.6673 14.1667C36.6673 9.01667 32.634 5 27.5007 5Z" fill="#797878"/>
</svg>
