<svg width="45" height="45" viewBox="0 0 45 45" fill="none" xmlns="http://www.w3.org/2000/svg">
<rect width="45" height="45" rx="5" fill="#E1EB58"/>
<path d="M18.8 12H27.2C30.4 12 33 14.6 33 17.8V26.2C33 27.7383 32.3889 29.2135 31.3012 30.3012C30.2135 31.3889 28.7383 32 27.2 32H18.8C15.6 32 13 29.4 13 26.2V17.8C13 16.2617 13.6111 14.7865 14.6988 13.6988C15.7865 12.6111 17.2617 12 18.8 12ZM18.6 14C17.6452 14 16.7295 14.3793 16.0544 15.0544C15.3793 15.7295 15 16.6452 15 17.6V26.4C15 28.39 16.61 30 18.6 30H27.4C28.3548 30 29.2705 29.6207 29.9456 28.9456C30.6207 28.2705 31 27.3548 31 26.4V17.6C31 15.61 29.39 14 27.4 14H18.6ZM28.25 15.5C28.5815 15.5 28.8995 15.6317 29.1339 15.8661C29.3683 16.1005 29.5 16.4185 29.5 16.75C29.5 17.0815 29.3683 17.3995 29.1339 17.6339C28.8995 17.8683 28.5815 18 28.25 18C27.9185 18 27.6005 17.8683 27.3661 17.6339C27.1317 17.3995 27 17.0815 27 16.75C27 16.4185 27.1317 16.1005 27.3661 15.8661C27.6005 15.6317 27.9185 15.5 28.25 15.5ZM23 17C24.3261 17 25.5979 17.5268 26.5355 18.4645C27.4732 19.4021 28 20.6739 28 22C28 23.3261 27.4732 24.5979 26.5355 25.5355C25.5979 26.4732 24.3261 27 23 27C21.6739 27 20.4021 26.4732 19.4645 25.5355C18.5268 24.5979 18 23.3261 18 22C18 20.6739 18.5268 19.4021 19.4645 18.4645C20.4021 17.5268 21.6739 17 23 17ZM23 19C22.2044 19 21.4413 19.3161 20.8787 19.8787C20.3161 20.4413 20 21.2044 20 22C20 22.7956 20.3161 23.5587 20.8787 24.1213C21.4413 24.6839 22.2044 25 23 25C23.7956 25 24.5587 24.6839 25.1213 24.1213C25.6839 23.5587 26 22.7956 26 22C26 21.2044 25.6839 20.4413 25.1213 19.8787C24.5587 19.3161 23.7956 19 23 19Z" fill="black"/>
</svg>
