<svg width="45" height="45" viewBox="0 0 45 45" fill="none" xmlns="http://www.w3.org/2000/svg">
<rect width="45" height="45" rx="5" fill="#E1EB58"/>
<path d="M22.9987 21.4167C22.2251 21.4167 21.4833 21.1094 20.9363 20.5624C20.3893 20.0155 20.082 19.2736 20.082 18.5C20.082 17.7265 20.3893 16.9846 20.9363 16.4376C21.4833 15.8907 22.2251 15.5834 22.9987 15.5834C23.7722 15.5834 24.5141 15.8907 25.0611 16.4376C25.6081 16.9846 25.9154 17.7265 25.9154 18.5C25.9154 18.8831 25.8399 19.2623 25.6933 19.6162C25.5468 19.9701 25.3319 20.2916 25.0611 20.5624C24.7903 20.8333 24.4687 21.0481 24.1149 21.1947C23.761 21.3413 23.3817 21.4167 22.9987 21.4167ZM22.9987 10.3334C20.8328 10.3334 18.7555 11.1938 17.224 12.7253C15.6924 14.2569 14.832 16.3341 14.832 18.5C14.832 24.625 22.9987 33.6667 22.9987 33.6667C22.9987 33.6667 31.1654 24.625 31.1654 18.5C31.1654 16.3341 30.3049 14.2569 28.7734 12.7253C27.2419 11.1938 25.1646 10.3334 22.9987 10.3334Z" fill="black"/>
</svg>
