<svg width="162" height="47" viewBox="0 0 162 47" fill="none" xmlns="http://www.w3.org/2000/svg">
<path d="M19.2188 27.7891C19.2188 29.4036 18.6328 30.7969 17.4609 31.9688C15.7943 33.5833 13.4505 34.3906 10.4297 34.3906C7.82552 34.3906 5.52083 33.7266 3.51562 32.3984C3.51562 32.9193 3.48958 33.2969 3.4375 33.5312C3.30729 33.8958 2.92969 34.0781 2.30469 34.0781V25.9531H3.55469C3.58073 26.2135 3.60677 26.487 3.63281 26.7734C4.23177 31.1224 6.41927 33.2969 10.1953 33.2969C11.1589 33.2969 12.0443 33.1276 12.8516 32.7891C14.5703 32.0078 15.4297 30.7057 15.4297 28.8828C15.4297 28.2057 15.2734 27.5807 14.9609 27.0078C14.3359 25.9141 12.8646 24.8464 10.5469 23.8047C8.02083 22.6589 6.53646 21.9557 6.09375 21.6953C3.67188 20.3151 2.46094 18.5312 2.46094 16.3438C2.46094 14.8594 2.99479 13.5833 4.0625 12.5156C5.65104 10.9531 7.86458 10.1719 10.7031 10.1719C13.0208 10.1719 15.1432 10.6797 17.0703 11.6953C17.0703 11.4349 17.0964 11.2135 17.1484 11.0312C17.2266 10.5885 17.6042 10.3672 18.2812 10.3672V17.2422H17.0312C17.0573 15.7578 16.6797 14.5078 15.8984 13.4922C14.7786 12.0078 13.138 11.2656 10.9766 11.2656C10.1432 11.2656 9.375 11.4089 8.67188 11.6953C7.05729 12.3464 6.25 13.5052 6.25 15.1719C6.25 15.7969 6.39323 16.3958 6.67969 16.9688C7.27865 18.0365 8.72396 19.0781 11.0156 20.0938C13.5677 21.2396 15.0521 21.9427 15.4688 22.2031C17.9688 23.6354 19.2188 25.4974 19.2188 27.7891ZM28.2031 40.4453H30.7812C30.9375 40.4453 31.0677 40.4583 31.1719 40.4844C31.5625 40.5365 31.7578 40.849 31.7578 41.4219H22.0703V40.4453C22.8516 40.4453 23.4375 40.3802 23.8281 40.25C24.5052 40.0156 24.8438 39.3125 24.8438 38.1406V18.3359H22.0703V17.3594H27.9297L28.125 21.5C28.3594 20.8229 28.6849 20.1979 29.1016 19.625C30.3776 17.8281 32.1875 16.9297 34.5312 16.9297C36.1198 16.9297 37.487 17.4375 38.6328 18.4531C40.3255 19.9896 41.1719 22.2552 41.1719 25.25C41.1719 27.8542 40.4427 30.0026 38.9844 31.6953C37.4219 33.4922 35.4557 34.3906 33.0859 34.3906C31.1849 34.2865 29.5573 33.6224 28.2031 32.3984V40.4453ZM33.125 18.5703C32.2396 18.5703 31.4193 18.8568 30.6641 19.4297C28.9974 20.7318 28.1641 23.0625 28.1641 26.4219C28.1641 27.9062 28.3464 29.1823 28.7109 30.25C29.4661 32.3594 30.7943 33.4141 32.6953 33.4141C33.2943 33.4141 33.8542 33.2969 34.375 33.0625C36.4323 32.125 37.4609 29.6641 37.4609 25.6797C37.4609 24.8724 37.4089 24.1042 37.3047 23.375C36.8359 20.1719 35.4427 18.5703 33.125 18.5703ZM47.8516 25.6406C47.8776 30.7708 49.5182 33.362 52.7734 33.4141C55.9245 33.388 57.513 30.7448 57.5391 25.4844C57.513 20.4844 55.8984 17.9583 52.6953 17.9062C49.4922 17.9323 47.8776 20.5104 47.8516 25.6406ZM52.8125 16.9297C54.6615 16.9297 56.3151 17.4245 57.7734 18.4141C60.1172 20.0286 61.2891 22.4245 61.2891 25.6016C61.2891 27.9974 60.5339 30.0156 59.0234 31.6562C57.3568 33.4792 55.2344 34.3906 52.6562 34.3906C50.7812 34.3906 49.0885 33.8438 47.5781 32.75C45.2865 31.0833 44.1406 28.6615 44.1406 25.4844C44.1406 23.1667 44.8698 21.2135 46.3281 19.625C48.0208 17.8281 50.1823 16.9297 52.8125 16.9297ZM72.8906 33.0234C73.0469 33.0234 73.1771 33.0365 73.2812 33.0625C73.6719 33.1146 73.8672 33.4271 73.8672 34H63.9453V33.0234C64.7266 33.0234 65.2995 32.9714 65.6641 32.8672C66.3672 32.6328 66.7188 31.9167 66.7188 30.7188V18.3359H63.9453V17.3594H69.8438L70 21.1094C70.3125 20.3802 70.7292 19.7292 71.25 19.1562C72.5 17.8021 73.9323 17.125 75.5469 17.125C75.8333 17.125 76.1068 17.151 76.3672 17.2031C77.5651 17.4635 78.1641 18.1927 78.1641 19.3906C78.1641 19.5729 78.138 19.7682 78.0859 19.9766C77.8255 20.7839 77.2656 21.1875 76.4062 21.1875C76.224 21.1875 76.0417 21.1615 75.8594 21.1094C75.4427 20.9792 75.026 20.5495 74.6094 19.8203C74.2448 19.1693 73.8672 18.8438 73.4766 18.8438C73.1641 18.8438 72.7865 19.026 72.3438 19.3906C71.0156 20.5104 70.2604 22.1901 70.0781 24.4297V33.0234H72.8906ZM79.1016 18.375V17.3984H81.8359V13.6875L85.1562 12.8672V17.3984H91.0547V18.375H85.1562V30.25C85.1823 32.2031 85.8854 33.2057 87.2656 33.2578C88.5938 33.2318 89.5312 32.0599 90.0781 29.7422L91.1328 29.9375C91.1328 29.9635 91.1328 29.9896 91.1328 30.0156C90.5339 32.9583 89.0104 34.4297 86.5625 34.4297C83.5938 34.3255 82.0182 32.5677 81.8359 29.1562V18.375H79.1016ZM100.586 33.0234C100.742 33.0234 100.872 33.0365 100.977 33.0625C101.367 33.1146 101.562 33.4271 101.562 34H92.4609V33.0234C93.2422 33.0234 93.8281 32.9714 94.2188 32.8672C95.026 32.6328 95.4297 31.9167 95.4297 30.7188V18.3359H92.4609V17.3594H98.75V33.0234H100.586ZM99.1797 11.7734C99.1797 12.112 99.1016 12.4505 98.9453 12.7891C98.5286 13.6484 97.8516 14.0781 96.9141 14.0781C96.5755 14.0781 96.25 14.013 95.9375 13.8828C95.0521 13.4661 94.6094 12.763 94.6094 11.7734C94.6094 11.4349 94.6875 11.0964 94.8438 10.7578C95.2604 9.89844 95.9505 9.46875 96.9141 9.46875C97.2526 9.46875 97.5911 9.54688 97.9297 9.70312C98.763 10.1458 99.1797 10.8359 99.1797 11.7734ZM112.852 33.0234C112.982 33.0234 113.112 33.0365 113.242 33.0625C113.607 33.1146 113.789 33.4271 113.789 34H103.828V33.0234C104.609 33.0234 105.195 32.9714 105.586 32.8672C106.367 32.6328 106.758 31.9167 106.758 30.7188V18.3359H103.945V17.3594H106.758V16.7734C106.758 14.638 107.174 12.8672 108.008 11.4609C109.232 9.42969 111.12 8.41406 113.672 8.41406C114.688 8.41406 115.599 8.58333 116.406 8.92188C117.708 9.46875 118.359 10.25 118.359 11.2656C118.359 11.3958 118.346 11.526 118.32 11.6562C118.138 12.4115 117.591 12.7891 116.68 12.7891C116.393 12.7891 116.12 12.6979 115.859 12.5156C115.651 12.3333 115.299 11.7865 114.805 10.875C114.284 9.88542 113.633 9.39062 112.852 9.39062C112.487 9.39062 112.161 9.46875 111.875 9.625C110.677 10.25 110.078 12.75 110.078 17.125V17.3594H114.57V18.3359H110.078V33.0234H112.852ZM119.062 40.2109C119.401 40.2109 119.753 40.1458 120.117 40.0156C121.367 39.4688 122.695 37.5156 124.102 34.1562L116.953 18.375H115.117V17.3594H123.047V18.375H120.469L125.664 30.5234L130.547 18.375H127.695V17.3594H133.633C133.633 17.5938 133.62 17.7891 133.594 17.9453C133.516 18.2318 133.203 18.375 132.656 18.375C132.448 18.375 132.266 18.388 132.109 18.4141C131.771 18.5182 131.471 18.9349 131.211 19.6641L125.43 34.1172C124.857 35.5234 124.271 36.7214 123.672 37.7109C122.161 40.2109 120.378 41.4609 118.32 41.4609C117.695 41.4609 117.096 41.3438 116.523 41.1094C115.378 40.6406 114.805 39.9245 114.805 38.9609C114.805 38.8568 114.818 38.7396 114.844 38.6094C115 37.8802 115.508 37.5156 116.367 37.5156C116.68 37.5156 116.953 37.5938 117.188 37.75C117.474 37.9323 117.773 38.4271 118.086 39.2344C118.32 39.8854 118.646 40.2109 119.062 40.2109Z" fill="#AAA51E"/>
<path d="M131.496 33.1389C138.106 34.8984 149.78 36.4815 158.447 29.304M131.532 36.3653C137.132 38.45 146.841 40.3157 158.432 35.1817M135.413 30.0881C141.931 32.4589 146.616 27.0989 137.766 24.7735C134.968 23.774 134.054 19.0133 142.069 20.5051M144.813 17.8176L149.39 25.0993L154.28 17.8035M149.352 24.9725L149.363 30.6845" stroke="#AAA51E" stroke-linecap="round" stroke-linejoin="round"/>
</svg>
