<svg width="24" height="21" viewBox="0 0 24 21" fill="none" xmlns="http://www.w3.org/2000/svg">
<g filter="url(#filter0_d_363_2160)">
<path d="M12.1 15.55L12 15.65L11.89 15.55C7.14 11.24 4 8.39 4 5.5C4 3.5 5.5 2 7.5 2C9.04 2 10.54 3 11.07 4.36H12.93C13.46 3 14.96 2 16.5 2C18.5 2 20 3.5 20 5.5C20 8.39 16.86 11.24 12.1 15.55ZM16.5 0C14.76 0 13.09 0.81 12 2.08C10.91 0.81 9.24 0 7.5 0C4.42 0 2 2.41 2 5.5C2 9.27 5.4 12.36 10.55 17.03L12 18.35L13.45 17.03C18.6 12.36 22 9.27 22 5.5C22 2.41 19.58 0 16.5 0Z" fill="#666666"/>
</g>
<defs>
<filter id="filter0_d_363_2160" x="-2" y="0" width="28" height="26.3501" filterUnits="userSpaceOnUse" color-interpolation-filters="sRGB">
<feFlood flood-opacity="0" result="BackgroundImageFix"/>
<feColorMatrix in="SourceAlpha" type="matrix" values="0 0 0 0 0 0 0 0 0 0 0 0 0 0 0 0 0 0 127 0" result="hardAlpha"/>
<feOffset dy="4"/>
<feGaussianBlur stdDeviation="2"/>
<feComposite in2="hardAlpha" operator="out"/>
<feColorMatrix type="matrix" values="0 0 0 0 0 0 0 0 0 0 0 0 0 0 0 0 0 0 0.25 0"/>
<feBlend mode="normal" in2="BackgroundImageFix" result="effect1_dropShadow_363_2160"/>
<feBlend mode="normal" in="SourceGraphic" in2="effect1_dropShadow_363_2160" result="shape"/>
</filter>
</defs>
</svg>
