<svg width="69" height="45" viewBox="0 0 69 45" fill="none" xmlns="http://www.w3.org/2000/svg">
<rect x="0.410156" width="68.443" height="45" rx="5" fill="#E1EB58"/>
<path d="M25.9681 25.6708L23.5316 23.2301L21.0938 25.6708M43.0319 19.3746L45.4684 21.8166L47.9062 19.3746" stroke="black" stroke-width="1.5" stroke-linecap="round" stroke-linejoin="round"/>
<path d="M45.468 21.8166C45.468 18.9016 44.313 16.109 42.256 14.0478C41.2381 13.0279 40.0292 12.2188 38.6982 11.6667C37.3673 11.1146 35.9405 10.8304 34.4996 10.8303C33.1 10.8292 31.7133 11.0986 30.4159 11.6237C28.9675 12.2044 27.6597 13.0874 26.5797 14.2136C25.4997 15.3399 24.6723 16.6835 24.1528 18.155M23.5312 23.2287C23.5334 25.7787 24.4214 28.2488 26.0434 30.2164C27.6636 32.1818 29.9179 33.5213 32.4186 34.0049C34.9194 34.4884 37.5105 34.0857 39.7466 32.8661C41.9826 31.6439 43.7249 29.6834 44.676 27.3193" stroke="black" stroke-width="1.5" stroke-linecap="round" stroke-linejoin="round"/>
<path d="M31.1719 25.2197C31.2434 26.036 31.6318 26.7918 32.2537 27.3253C32.8756 27.8588 33.6817 28.1276 34.4994 28.0742C37.1834 28.0742 37.8269 26.5301 37.8269 25.2197C37.8269 23.9093 36.7173 22.5206 34.4994 22.5206C32.2815 22.5206 31.1719 21.6433 31.1719 19.8558C31.2027 19.2364 31.4214 18.6411 31.7989 18.1491C32.1765 17.6571 32.6949 17.2917 33.2852 17.1017C33.6771 16.9752 34.0896 16.9298 34.4994 16.9683C35.3181 16.9327 36.1193 17.2122 36.7382 17.7493C37.3572 18.2864 37.7468 19.0403 37.8269 19.8558M34.4994 29.7379V28.2928M34.4994 15.2991V16.9628" stroke="black" stroke-width="1.5" stroke-linecap="round" stroke-linejoin="round"/>
</svg>
