<svg width="69" height="48" viewBox="0 0 69 48" fill="none" xmlns="http://www.w3.org/2000/svg">
<rect x="0.410156" y="0.754272" width="68.443" height="46.5429" rx="5" fill="#E1EB58"/>
<path d="M34.4099 9.81189H36.4552C36.7165 9.81189 36.9671 9.91569 37.1518 10.1005C37.3366 10.2852 37.4404 10.5358 37.4404 10.7971C37.4404 11.0584 37.3366 11.309 37.1518 11.4938C36.9671 11.6785 36.7165 11.7823 36.4552 11.7823H34.4847C31.3609 11.7823 29.1173 11.785 27.4096 12.0135C25.7294 12.2395 24.7166 12.6703 23.9679 13.4178C23.2204 14.1665 22.7909 15.178 22.5649 16.8582C22.3363 18.5659 22.3337 20.8095 22.3337 23.9333C22.3337 27.0571 22.3363 29.3008 22.5649 31.0085C22.7909 32.6886 23.2217 33.7014 23.9692 34.4502C24.7179 35.1977 25.7294 35.6272 27.4096 35.8531C29.1173 36.0817 31.3609 36.0843 34.4847 36.0843C37.6085 36.0843 39.8522 36.0817 41.5599 35.8531C43.24 35.6272 44.2528 35.1963 45.0016 34.4489C45.749 33.7001 46.1786 32.6886 46.4045 31.0085C46.6331 29.3008 46.6357 27.0571 46.6357 23.9333V21.9629C46.6357 21.7016 46.7395 21.451 46.9243 21.2662C47.1091 21.0815 47.3597 20.9777 47.621 20.9777C47.8823 20.9777 48.1328 21.0815 48.3176 21.2662C48.5024 21.451 48.6062 21.7016 48.6062 21.9629V24.0082C48.6062 27.0414 48.6062 29.4177 48.3566 31.2725C48.1017 33.1694 47.5684 34.667 46.394 35.8426C45.2183 37.0183 43.7208 37.5504 41.8226 37.8052C39.9691 38.0548 37.5928 38.0548 34.5596 38.0548H34.4099C31.3767 38.0548 29.0004 38.0548 27.1455 37.8052C25.2486 37.5504 23.7511 37.017 22.5754 35.8426C21.3997 34.667 20.8677 33.1694 20.6129 31.2712C20.3633 29.4177 20.3633 27.0414 20.3633 24.0082V23.8585C20.3633 20.8253 20.3633 18.449 20.6129 16.5941C20.8677 14.6973 21.401 13.1997 22.5754 12.024C23.7511 10.8483 25.2486 10.3163 27.1468 10.0615C29.0004 9.81189 31.3767 9.81189 34.4099 9.81189Z" fill="black"/>
<path fill-rule="evenodd" clip-rule="evenodd" d="M38.7539 14.738C38.7539 13.4315 39.2729 12.1785 40.1967 11.2547C41.1205 10.3309 42.3735 9.81189 43.68 9.81189C44.9865 9.81189 46.2394 10.3309 47.1633 11.2547C48.0871 12.1785 48.6061 13.4315 48.6061 14.738C48.6061 16.0445 48.0871 17.2974 47.1633 18.2212C46.2394 19.1451 44.9865 19.6641 43.68 19.6641C42.3735 19.6641 41.1205 19.1451 40.1967 18.2212C39.2729 17.2974 38.7539 16.0445 38.7539 14.738ZM43.68 11.7823C43.2919 11.7823 42.9075 11.8588 42.5489 12.0073C42.1903 12.1558 41.8645 12.3736 41.59 12.648C41.3156 12.9225 41.0979 13.2483 40.9493 13.6069C40.8008 13.9655 40.7243 14.3498 40.7243 14.738C40.7243 15.1261 40.8008 15.5105 40.9493 15.8691C41.0979 16.2277 41.3156 16.5535 41.59 16.8279C41.8645 17.1024 42.1903 17.3201 42.5489 17.4686C42.9075 17.6172 43.2919 17.6936 43.68 17.6936C44.4639 17.6936 45.2157 17.3822 45.77 16.8279C46.3242 16.2736 46.6356 15.5219 46.6356 14.738C46.6356 13.9541 46.3242 13.2023 45.77 12.648C45.2157 12.0937 44.4639 11.7823 43.68 11.7823Z" fill="black"/>
<path d="M36.783 21.3061C36.783 21.85 37.2244 22.2914 37.7682 22.2914H38.6746L36.0303 24.9357C35.9998 24.9663 35.9635 24.9905 35.9236 25.0071C35.8837 25.0236 35.841 25.0322 35.7978 25.0322C35.7546 25.0322 35.7118 25.0236 35.6719 25.0071C35.632 24.9905 35.5958 24.9663 35.5653 24.9357L33.4819 22.8523C33.0508 22.4215 32.4663 22.1795 31.8569 22.1795C31.2475 22.1795 30.663 22.4215 30.232 22.8523L27.2198 25.8644C27.123 25.9546 27.0454 26.0634 26.9915 26.1842C26.9377 26.3051 26.9087 26.4355 26.9064 26.5678C26.9041 26.7001 26.9284 26.8315 26.978 26.9542C27.0275 27.0769 27.1013 27.1883 27.1948 27.2819C27.2884 27.3754 27.3998 27.4492 27.5225 27.4987C27.6452 27.5483 27.7766 27.5726 27.9088 27.5703C28.0411 27.5679 28.1716 27.539 28.2924 27.4851C28.4133 27.4313 28.5221 27.3536 28.6123 27.2569L31.6244 24.2447C31.6549 24.2141 31.6911 24.1899 31.731 24.1733C31.7709 24.1568 31.8137 24.1482 31.8569 24.1482C31.9001 24.1482 31.9429 24.1568 31.9828 24.1733C32.0227 24.1899 32.0589 24.2141 32.0894 24.2447L34.1728 26.3281C34.6039 26.7589 35.1884 27.0009 35.7978 27.0009C36.4072 27.0009 36.9917 26.7589 37.4227 26.3281L40.0671 23.6851V24.5902C40.0671 24.8515 40.1709 25.1021 40.3556 25.2869C40.5404 25.4716 40.791 25.5754 41.0523 25.5754C41.3136 25.5754 41.5642 25.4716 41.7489 25.2869C41.9337 25.1021 42.0375 24.8515 42.0375 24.5902V21.3061C42.0375 21.0448 41.9337 20.7943 41.7489 20.6095C41.5642 20.4247 41.3136 20.3209 41.0523 20.3209H37.7682C37.5069 20.3209 37.2563 20.4247 37.0716 20.6095C36.8868 20.7943 36.783 21.0448 36.783 21.3061Z" fill="black"/>
</svg>
