<svg width="101" height="37" viewBox="0 0 101 37" fill="none" xmlns="http://www.w3.org/2000/svg">
<path d="M101.001 0.824951L27.111 32.2865C20.9837 34.8816 15.8383 36.1792 11.6748 36.1792C6.9615 36.1792 3.54293 34.5281 1.41912 31.226C0.0864862 29.105 -0.306292 26.4144 0.240792 23.1544C0.790681 19.8943 2.24396 16.4182 4.60063 12.7261C6.56451 9.7382 9.78669 5.81042 14.2672 0.942784C12.7455 3.33513 11.6306 5.96303 10.9678 8.71978C9.7895 13.7473 10.85 17.4394 14.1493 19.7961C15.7204 20.8959 17.8807 21.4458 20.6302 21.4458C22.8269 21.4458 25.3014 21.0923 28.0537 20.3853L101.001 0.824951Z" fill="black"/>
</svg>
