<svg width="45" height="45" viewBox="0 0 45 45" fill="none" xmlns="http://www.w3.org/2000/svg">
<rect width="45" height="45" rx="5" fill="#E1EB58"/>
<path d="M31.6522 20.1864C31.7769 19.3458 31.7349 18.4889 31.5287 17.6644C31.2464 16.538 30.6629 15.5096 29.8406 14.6896C29.0206 13.8671 27.9923 13.2834 26.8658 13.001C26.0413 12.7949 25.1844 12.7531 24.3438 12.878M27.9004 19.7895C27.9695 19.3307 27.9298 18.8621 27.7845 18.4214C27.6392 17.9808 27.3924 17.5804 27.064 17.2527C26.7362 16.9242 26.3359 16.6774 25.8952 16.5322C25.4546 16.3869 24.986 16.3472 24.5271 16.4163" stroke="black" stroke-width="2" stroke-linecap="round" stroke-linejoin="round"/>
<path d="M18.1059 14.347C18.2822 14.3471 18.4553 14.3944 18.6073 14.4839C18.7592 14.5734 18.8844 14.702 18.97 14.8562L20.1796 17.0342C20.2576 17.1747 20.3002 17.3322 20.3036 17.4929C20.3071 17.6536 20.2713 17.8128 20.1993 17.9566L19.0342 20.2863C19.0342 20.2863 19.3718 22.0223 20.7846 23.4351C22.1979 24.8478 23.928 25.18 23.928 25.18L26.2572 24.0149C26.4011 23.943 26.5603 23.9072 26.7212 23.9107C26.882 23.9143 27.0395 23.957 27.1801 24.0352L29.365 25.2497C29.5189 25.3354 29.6471 25.4607 29.7364 25.6127C29.8257 25.7646 29.8727 25.9376 29.8726 26.1138V28.622C29.8726 29.8988 28.6863 30.8217 27.4762 30.4129C24.9908 29.5745 21.1331 27.9774 18.6872 25.5325C16.2423 23.0871 14.6457 19.2289 13.8068 16.7435C13.3985 15.5334 14.3209 14.347 15.5982 14.347H18.1059Z" fill="black" stroke="black" stroke-width="2" stroke-linejoin="round"/>
</svg>
