<svg width="22" height="14" viewBox="0 0 22 14" fill="none" xmlns="http://www.w3.org/2000/svg">
<path d="M18.1009 13H6.96295C4.02895 13 2.56295 13 1.66795 11.883C-0.0290535 9.763 1.90495 4.123 3.07595 2C3.47295 4.4 7.56195 4.333 9.05095 4C8.05895 2.001 9.38295 1.334 10.0449 1H10.0469C12.9999 4.5 19.3149 6.404 20.8619 10.219C21.5309 11.867 19.6249 13 18.1009 13Z" stroke="#666666" stroke-width="1.5" stroke-linecap="round" stroke-linejoin="round"/>
<path d="M1 9C5.165 10.43 7.731 10.844 11.022 9.804C12.019 9.489 12.517 9.331 12.828 9.352C13.138 9.374 13.773 9.669 15.041 10.261C16.624 10.999 18.797 11.424 21 10.358M12.5 4.5L14 3M14.5 6L16 4.5" stroke="#666666" stroke-width="1.5" stroke-linecap="round" stroke-linejoin="round"/>
</svg>
