<svg width="15" height="20" viewBox="0 0 15 20" fill="none" xmlns="http://www.w3.org/2000/svg">
<path fill-rule="evenodd" clip-rule="evenodd" d="M10.5 0C9.90902 -8.80582e-09 9.32386 0.116396 8.7779 0.342542C8.23193 0.568688 7.73586 0.900156 7.31799 1.31802C6.90013 1.73588 6.56866 2.23196 6.34251 2.77792C6.11637 3.32389 5.99997 3.90905 5.99997 4.5C5.99997 5.09095 6.11637 5.67611 6.34251 6.22208C6.56866 6.76804 6.90013 7.26412 7.31799 7.68198C7.73586 8.09984 8.23193 8.43131 8.7779 8.65746C9.32386 8.8836 9.90902 9 10.5 9C11.6934 9 12.838 8.52589 13.682 7.68198C14.5259 6.83807 15 5.69347 15 4.5C15 3.30653 14.5259 2.16193 13.682 1.31802C12.838 0.474106 11.6934 1.77842e-08 10.5 0ZM7.99997 4.5C7.99997 3.83696 8.26336 3.20107 8.73221 2.73223C9.20105 2.26339 9.83693 2 10.5 2C11.163 2 11.7989 2.26339 12.2677 2.73223C12.7366 3.20107 13 3.83696 13 4.5C13 5.16304 12.7366 5.79893 12.2677 6.26777C11.7989 6.73661 11.163 7 10.5 7C9.83693 7 9.20105 6.73661 8.73221 6.26777C8.26336 5.79893 7.99997 5.16304 7.99997 4.5ZM0.237972 17.335C0.0694717 16.8722 -0.00619695 16.3807 0.0152881 15.8886C0.0367731 15.3965 0.154991 14.9135 0.363189 14.4671C0.571387 14.0207 0.865487 13.6197 1.22869 13.287C1.59189 12.9543 2.01708 12.6964 2.47997 12.528L8.58797 10.305C9.05075 10.1366 9.54217 10.061 10.0342 10.0825C10.5262 10.104 11.0091 10.2221 11.4555 10.4303C11.9018 10.6384 12.3027 10.9324 12.6354 11.2955C12.9681 11.6586 13.2261 12.0837 13.3945 12.5465C13.5629 13.0093 13.6385 13.5007 13.617 13.9927C13.5955 14.4847 13.4773 14.9677 13.2692 15.414C13.061 15.8603 12.767 16.2613 12.4039 16.594C12.0408 16.9267 11.6158 17.1846 11.153 17.353L5.04497 19.576C4.5822 19.7445 4.09076 19.8202 3.59872 19.7988C3.10668 19.7774 2.62368 19.6593 2.1773 19.4512C1.73091 19.2431 1.3299 18.9491 0.997146 18.586C0.664395 18.2229 0.406426 17.7978 0.237972 17.335ZM7.14597 12.958L9.27197 12.184C9.488 12.1054 9.71739 12.0701 9.94704 12.0802C10.1767 12.0902 10.4021 12.1454 10.6105 12.2426C10.8188 12.3398 11.0059 12.477 11.1612 12.6465C11.3165 12.816 11.4369 13.0145 11.5155 13.2305C11.5941 13.4465 11.6293 13.6759 11.6193 13.9056C11.6092 14.1352 11.554 14.3607 11.4569 14.569C11.3597 14.7773 11.2224 14.9645 11.0529 15.1197C10.8834 15.275 10.685 15.3954 10.469 15.474L8.34297 16.247L7.14597 12.958ZM5.26597 13.642L3.16397 14.408C2.94315 14.4828 2.7395 14.6009 2.56498 14.7555C2.39046 14.9101 2.24859 15.098 2.1477 15.3082C2.0468 15.5184 1.98892 15.7466 1.97746 15.9794C1.96599 16.2123 2.00116 16.4451 2.08092 16.6642C2.16067 16.8832 2.2834 17.0842 2.44188 17.2552C2.60037 17.4261 2.79142 17.5637 3.00383 17.6599C3.21623 17.756 3.4457 17.8087 3.67875 17.8149C3.91181 17.8211 4.14376 17.7807 4.36097 17.696L6.46397 16.931L5.26597 13.642Z" fill="#666666"/>
</svg>
