<svg width="45" height="45" viewBox="0 0 45 45" fill="none" xmlns="http://www.w3.org/2000/svg">
<rect width="45" height="45" rx="5" fill="#E1EB58"/>
<path d="M33.4591 16C32.6891 16.35 31.8591 16.58 30.9991 16.69C31.8791 16.16 32.5591 15.32 32.8791 14.31C32.0491 14.81 31.1291 15.16 30.1591 15.36C29.3691 14.5 28.2591 14 26.9991 14C24.6491 14 22.7291 15.92 22.7291 18.29C22.7291 18.63 22.7691 18.96 22.8391 19.27C19.2791 19.09 16.1091 17.38 13.9991 14.79C13.6291 15.42 13.4191 16.16 13.4191 16.94C13.4191 18.43 14.1691 19.75 15.3291 20.5C14.6191 20.5 13.9591 20.3 13.3791 20V20.03C13.3791 22.11 14.8591 23.85 16.8191 24.24C16.1899 24.4129 15.5291 24.4369 14.8891 24.31C15.1607 25.1625 15.6926 25.9084 16.4101 26.4429C17.1276 26.9775 17.9945 27.2737 18.8891 27.29C17.3727 28.4905 15.4931 29.1394 13.5591 29.13C13.2191 29.13 12.8791 29.11 12.5391 29.07C14.4391 30.29 16.6991 31 19.1191 31C26.9991 31 31.3291 24.46 31.3291 18.79C31.3291 18.6 31.3291 18.42 31.3191 18.23C32.1591 17.63 32.8791 16.87 33.4591 16Z" fill="black"/>
</svg>
