<svg width="18" height="20" viewBox="0 0 18 20" fill="none" xmlns="http://www.w3.org/2000/svg">
<path d="M4.5 0C5.03043 0 5.53914 0.210714 5.91421 0.585786C6.28929 0.960859 6.5 1.46957 6.5 2C6.5 2.53043 6.28929 3.03914 5.91421 3.41421C5.53914 3.78929 5.03043 4 4.5 4C3.96957 4 3.46086 3.78929 3.08579 3.41421C2.71071 3.03914 2.5 2.53043 2.5 2C2.5 1.46957 2.71071 0.960859 3.08579 0.585786C3.46086 0.210714 3.96957 0 4.5 0ZM3 20V14H0L2.6 6.4C2.9 5.6 3.6 5 4.5 5C5.4 5 6.2 5.6 6.4 6.4L9 14L11.6 6.4C11.9 5.6 12.6 5 13.5 5C14.4 5 15.2 5.6 15.4 6.4L18 14H15V20H12V14H6V20H3ZM13.5 0C14.0304 0 14.5391 0.210714 14.9142 0.585786C15.2893 0.960859 15.5 1.46957 15.5 2C15.5 2.53043 15.2893 3.03914 14.9142 3.41421C14.5391 3.78929 14.0304 4 13.5 4C12.9696 4 12.4609 3.78929 12.0858 3.41421C11.7107 3.03914 11.5 2.53043 11.5 2C11.5 1.46957 11.7107 0.960859 12.0858 0.585786C12.4609 0.210714 12.9696 0 13.5 0Z" fill="#666666"/>
</svg>
